<svg preserveAspectRatio="none" width="100%" height="100%" overflow="visible" style="display: block;" viewBox="0 0 335.408 160" fill="none" xmlns="http://www.w3.org/2000/svg">
<g id="Group">
<path id="Vector" d="M90.6098 135.036C98.3052 112.345 115.189 87.0759 137.091 73.7884C138.074 73.4479 149.362 86.3737 150.192 86.802C149.496 79.7095 148.609 73.3828 148.331 65.1763C148.314 64.7207 148.512 64.2788 148.796 63.9216C151.283 60.8036 160.956 53.6506 160.956 53.6506C156.745 53.9941 153.261 54.7736 147.697 54.1637C145.377 50.3813 145.865 43.2994 145.923 38.6891C142.863 43.8109 139.237 50.7006 135.747 55.3715C134.593 56.9138 132.977 58.0535 131.128 58.6241C129.055 59.2659 126.59 59.6291 124.541 59.8183C128.392 62.1976 129.792 65.1929 127.541 69.0222C124.43 74.3167 121.159 78.9966 116.94 84.4666L115.085 83.6099L117.705 71.6013C119.607 61.5165 101.219 59.1781 94.611 55.936L94.8406 53.9185C105.297 52.47 118.089 52.2914 127.911 49.0327C139.122 34.9021 147.857 18.1289 159.704 4.1709L161.536 5.05784C159.407 13.4989 154.588 38.1109 157.037 41.5633C157.246 42.0658 157.889 43.5869 161.633 43.5869C174.526 42.6152 185.323 36.0555 197.425 32.3821L198.407 34.1802C185.181 45.3427 170.082 56.6656 158.77 69.6927C158.279 82.4535 161.416 99.3403 165.035 115.163L163.258 116.041C158.737 110.318 144.056 94.0549 136.606 90.1575C112.86 103.088 91.078 136.652 92.4964 135.878L90.5977 135.024L90.6053 135.031V135.034L90.6098 135.036Z" fill="var(--fill-0, #EED410)"/>
<path id="Vector_2" d="M14.3615 127.748C15.6279 121.443 16.8957 115.146 18.1727 108.867C18.2533 108.817 18.3339 108.765 18.4144 108.715C19.6899 113.436 20.9699 118.171 22.253 122.914C19.6032 124.481 16.9702 126.089 14.3615 127.748ZM29.2734 87.7783C22.7699 91.3745 16.3728 95.2386 10.1019 99.3782C6.69808 116.789 3.32928 134.279 0 151.849C3.71998 149.159 7.48404 146.572 11.2968 144.081C11.7148 142.03 12.1374 139.985 12.5585 137.936C16.3591 135.483 20.2037 133.131 24.0924 130.874C24.5029 132.413 24.9103 133.951 25.3238 135.493C30.1414 132.729 35.0228 130.116 39.9575 127.658C36.3621 114.285 32.8063 100.995 29.2734 87.7814V87.7783Z" fill="var(--fill-0, #EED410)"/>
<path id="Vector_3" d="M95.3566 97.8555V61.3984C89.9979 62.7924 84.6725 64.3468 79.3867 66.0587V111.546C86.9787 109.089 94.6497 106.96 102.383 105.155C104.7 101.491 107.22 97.9175 109.92 94.4727C105.045 95.4716 100.188 96.5992 95.3566 97.854V97.8555Z" fill="var(--fill-0, #EED410)"/>
<path id="Vector_4" d="M201.605 71.6826C197.871 70.1978 194.125 68.7842 190.378 67.4447C187.154 66.2838 186.193 65.2606 186.193 63.5034C186.193 61.23 188.391 59.7982 192.161 60.1221C196.611 60.5126 198.733 63.1084 199.486 67.1511C199.556 67.5279 199.621 67.9033 199.694 68.2787C203.865 68.7479 208.029 69.3139 212.179 69.9663C212.132 69.373 212.088 68.7827 212.044 68.1909C211.223 57.6293 208.122 54.3766 192.438 52.8631C191.57 52.7889 190.703 52.7178 189.832 52.6466C187.734 52.5013 183.453 52.5074 181.763 52.5422C177.535 56.3624 175.323 58.4133 170.606 62.7148V67.2631C170.606 74.5645 174.182 77.8247 182.354 80.3644C185.95 81.4814 189.539 82.668 193.124 83.9213C196.413 85.0655 197.231 86.0781 197.231 88.0881C197.231 90.5612 195.107 91.9507 191.687 91.6586C186.957 91.2681 184.621 88.7495 183.797 84.5388C183.706 84.0802 183.615 83.6185 183.525 83.1615C179.176 82.9178 174.823 82.774 170.471 82.7301C170.515 83.3143 170.565 83.9001 170.609 84.4843C171.494 95.7104 174.746 97.8293 191.067 99.0175C192.14 99.1083 193.212 99.2006 194.288 99.3035C208.461 100.741 212.106 98.238 212.116 87.8277V84.5812C212.116 78.035 208.92 74.5978 201.609 71.6887L201.606 71.6826H201.605Z" fill="var(--fill-0, #EED410)"/>
<path id="Vector_5" d="M267.214 101.201C268.584 96.2083 269.951 91.2272 271.32 86.2566C271.407 86.293 271.495 86.3247 271.579 86.358C272.945 92.3971 274.306 98.4408 275.668 104.497C272.863 103.352 270.046 102.253 267.219 101.206L267.216 101.203L267.214 101.201ZM283.002 76.4851C276.275 73.5125 269.455 70.8169 262.564 68.3906C258.821 82.2351 255.06 96.1598 251.279 110.169C255.504 111.459 259.701 112.851 263.876 114.344C264.333 112.732 264.796 111.121 265.253 109.509C269.394 111.017 273.514 112.621 277.6 114.327C278.031 116.284 278.459 118.238 278.89 120.198C283.938 122.331 288.938 124.615 293.88 127.049C290.282 110.113 286.653 93.2568 283 76.4836H283.003L283.002 76.4851Z" fill="var(--fill-0, #EED410)"/>
<path id="Vector_6" d="M214.795 56.2168V65.2527C218.986 65.9384 223.167 66.7179 227.331 67.5942V104.051C232.755 105.192 238.158 106.494 243.526 107.952V71.4946C247.805 72.6555 252.059 73.9239 256.288 75.2876V66.2547C242.671 61.8608 228.801 58.5174 214.796 56.2198V56.2168H214.795Z" fill="var(--fill-0, #EED410)"/>
<path id="Vector_7" d="M319.78 113.909C319.117 113.881 318.211 113.445 316.69 112.518C314.622 111.258 312.546 110.025 310.455 108.82V99.1392C312.546 100.344 314.622 101.575 316.69 102.834C318.211 103.759 319.116 104.459 319.78 105.263C321.05 106.71 321.828 108.576 321.828 110.851C321.828 113.126 321.05 114.052 319.78 113.905V113.909ZM332.947 125.742C334.593 125.088 335.408 123.276 335.408 119.377V117.883C335.405 111.463 332.742 105.823 327.036 101.134C325.071 99.5645 323.582 98.5051 320.145 96.3301C312.331 91.411 304.327 86.9067 296.176 82.8125V128.305C300.99 130.724 305.753 133.282 310.457 135.988V117.599C312.547 118.8 314.624 120.034 316.691 121.293C319.119 122.775 320.442 124.924 320.445 127.521V138.701C320.445 140.847 321.411 142.621 323.452 143.937C327.349 146.468 331.199 149.097 334.999 151.837V151.057C334.414 149.663 334.353 149.1 334.356 146.825V137.469C334.356 133.379 332.667 129.347 329.057 125.702V125.442C331.012 126.197 332.067 126.1 332.948 125.745H332.945L332.947 125.742Z" fill="var(--fill-0, #EED410)"/>
<path id="Vector_8" d="M56.5414 111.005V74.5479C51.6296 76.6169 46.7648 78.8327 41.9473 81.1878V126.675C53.4629 121.043 65.269 116.231 77.2848 112.24V103.207C70.2963 105.532 63.3748 108.131 56.5414 111.005Z" fill="var(--fill-0, #EED410)"/>
<path id="Vector_9" d="M17.7455 20.4598C16.7893 21.3649 15.409 21.8189 13.5953 21.8189C11.7817 21.8189 10.4013 21.3664 9.45729 20.4598C8.50868 19.5516 8.0374 18.2015 8.0374 16.4049C8.0374 14.6083 8.50868 13.2643 9.45729 12.3592C10.3998 11.4526 11.7771 10.997 13.5953 10.997C15.4135 10.997 16.7863 11.4526 17.7455 12.3592C18.6987 13.2628 19.1761 14.6159 19.1761 16.4049C19.1761 18.194 18.6987 19.5501 17.7455 20.4598ZM23.7474 6.86197C21.4518 4.76418 18.0678 3.7168 13.5968 3.7168C9.12588 3.7168 5.73883 4.76569 3.4433 6.86197C1.14777 8.9537 0 12.1397 0 16.408C0 20.6762 1.14777 23.8607 3.4433 25.9464C5.73883 28.0291 9.1198 29.0734 13.5968 29.0734C18.0739 29.0734 21.4503 28.0306 23.7474 25.9464C26.0429 23.8607 27.1907 20.6853 27.1907 16.408C27.1907 12.1307 26.0429 8.95521 23.7474 6.86499V6.86197Z" fill="var(--fill-0, #EED410)"/>
<path id="Vector_10" d="M39.9486 12.7443C39.0805 12.5763 38.3235 12.3962 37.6895 12.1949C37.0526 11.9996 36.5114 11.8134 36.0705 11.6515C35.5856 11.4623 35.3438 11.202 35.3438 10.869C35.3438 10.5178 35.5855 10.2651 36.0507 10.1167C36.525 9.97145 37.1955 9.90031 38.0635 9.90031C39.2022 9.90031 40.4867 10.1167 41.9112 10.5617C42.6257 10.7873 43.3113 11.037 43.9604 11.3079C44.6233 11.5773 45.2496 11.871 45.8425 12.1828C46.1724 12.3719 46.4749 12.3553 46.744 12.1389C47.0161 11.9164 47.1286 11.6121 47.0906 11.2171L46.5114 5.74711C46.5007 5.58213 46.4247 5.41564 46.2985 5.24764C46.1739 5.08266 46.0295 4.97823 45.8774 4.93131C45.508 4.80568 45.052 4.68157 44.4971 4.55594C43.9513 4.43183 43.3128 4.29864 42.5786 4.15182C41.0568 3.85819 39.6187 3.71289 38.2687 3.71289C35.1888 3.71289 32.7808 4.39097 31.0507 5.74409C29.3238 7.09721 28.4648 9.09056 28.4648 11.7136C28.4648 13.9672 29.1687 15.7124 30.5795 16.9671C31.8656 18.1341 34.1809 19.08 37.5178 19.8141C39.2919 20.1849 40.4259 20.5421 40.9306 20.8736C41.2362 21.1097 41.3958 21.3352 41.3958 21.5623C41.3958 21.9982 41.1268 22.3342 40.5977 22.5612C40.0656 22.7943 39.3694 22.9048 38.5013 22.9048C37.0906 22.9048 35.5217 22.5945 33.7841 21.9694C32.1103 21.3277 30.7953 20.751 29.8482 20.2515C29.5244 20.0865 29.2219 20.0971 28.9528 20.2954C28.6807 20.4937 28.5652 20.7888 28.6123 21.1854L29.0699 27.1246C29.0897 27.3138 29.1672 27.4924 29.2994 27.6543C29.4347 27.8269 29.5852 27.9283 29.7631 27.9676C29.9759 28.0115 30.2815 28.0796 30.6722 28.1735C31.072 28.2673 31.5478 28.3687 32.1103 28.4732V28.4399C32.2624 28.4777 32.4098 28.514 32.5588 28.5352C32.7032 28.5519 32.875 28.5852 33.0605 28.626C33.892 28.7683 34.7266 28.8818 35.5658 28.953C36.4034 29.0302 37.2456 29.065 38.0939 29.065C39.6765 29.065 41.0994 28.8818 42.3597 28.5155C43.6214 28.1508 44.6932 27.621 45.5719 26.9187C46.4475 26.224 47.124 25.3568 47.5983 24.3275C48.0635 23.2953 48.3052 22.1071 48.3052 20.748C48.3052 18.6653 47.6591 16.955 46.3669 15.6231C45.2116 14.3683 43.0681 13.4103 39.9471 12.7443H39.9501H39.9486Z" fill="var(--fill-0, #EED410)"/>
<path id="Vector_11" d="M72.7761 4.18555H66.411C66.1556 4.18555 65.9458 4.27939 65.774 4.46859C65.6022 4.65475 65.5156 4.87422 65.5156 5.12395V12.9717H58.1425V5.12395C58.1425 4.87422 58.0513 4.65475 57.8795 4.46859C57.7077 4.27939 57.4919 4.18555 57.2425 4.18555H50.8774C50.6478 4.18555 50.4426 4.27939 50.2708 4.46859C50.096 4.65475 50.0078 4.87422 50.0078 5.12395V27.7546C50.0078 28.0044 50.096 28.2239 50.2708 28.41C50.4426 28.5962 50.6478 28.6931 50.8774 28.6931H57.2425C57.4919 28.6931 57.7077 28.5977 57.8795 28.41C58.0513 28.2223 58.1425 28.0044 58.1425 27.7546V19.4074H65.5156V27.7546C65.5156 28.0044 65.6022 28.2239 65.774 28.41C65.9458 28.5962 66.1571 28.6931 66.411 28.6931H72.7761C73.0285 28.6931 73.2398 28.5977 73.4131 28.41C73.5849 28.2239 73.6685 28.0044 73.6685 27.7546V5.12395C73.6685 4.87422 73.5849 4.65475 73.4131 4.46859C73.2383 4.27939 73.0255 4.18555 72.7761 4.18555Z" fill="var(--fill-0, #EED410)"/>
<path id="Vector_12" d="M95.4277 22.225H84.9245V19.5975L93.2264 19.5672C93.456 19.5672 93.6612 19.4733 93.833 19.2872C94.0109 19.098 94.093 18.8679 94.093 18.5985V14.0972C94.093 13.8475 94.0094 13.631 93.833 13.4418C93.6612 13.2557 93.456 13.1648 93.2264 13.1648H84.9245V10.6614H94.6494C94.8789 10.6614 95.0796 10.5706 95.2559 10.3814C95.4277 10.1922 95.5144 9.96367 95.5144 9.68972V5.12786C95.5144 4.87812 95.4277 4.65865 95.2559 4.47249C95.0781 4.28329 94.8789 4.18945 94.6494 4.18945H77.7841C77.5484 4.18945 77.3462 4.28329 77.1744 4.47249C76.9966 4.66168 76.916 4.87812 76.916 5.12786V27.7586C76.916 28.0083 76.9966 28.2278 77.1744 28.4139C77.3462 28.6001 77.5484 28.697 77.7841 28.697H95.4277C95.674 28.697 95.8884 28.6016 96.048 28.4139C96.2076 28.2262 96.2973 28.0083 96.2973 27.7586V23.1937C96.2973 22.9243 96.2091 22.7002 96.048 22.508C95.8868 22.3188 95.674 22.228 95.4277 22.228V22.225Z" fill="var(--fill-0, #EED410)"/>
<path id="Vector_13" d="M117.865 22.5065C117.707 22.3173 117.495 22.2265 117.242 22.2265H106.742V19.6005L115.047 19.5702C115.277 19.5702 115.482 19.4764 115.651 19.2872C115.822 19.098 115.917 18.8694 115.917 18.5985V14.0972C115.917 13.8475 115.825 13.631 115.651 13.4388C115.482 13.2526 115.277 13.1618 115.047 13.1618H106.742V10.6584H116.467C116.695 10.6584 116.897 10.5676 117.073 10.3784C117.242 10.1892 117.332 9.96064 117.332 9.68972V5.12786C117.332 4.87812 117.244 4.66168 117.073 4.47249C116.896 4.28329 116.693 4.18945 116.467 4.18945H99.5985C99.369 4.18945 99.1637 4.28329 98.9889 4.47249C98.8202 4.66168 98.7305 4.87812 98.7305 5.12786V27.7586C98.7305 28.0083 98.8187 28.2278 98.9889 28.4139C99.1637 28.6001 99.369 28.697 99.5985 28.697H117.242C117.495 28.697 117.707 28.6016 117.865 28.4139C118.03 28.2278 118.115 28.0083 118.115 27.7586V23.1937C118.115 22.9243 118.028 22.7003 117.865 22.5095V22.5065Z" fill="var(--fill-0, #EED410)"/>
<path id="Vector_14" d="M120.159 1.47522H119.697V2.31524H120.159C120.506 2.31524 120.685 2.15935 120.685 1.89296C120.685 1.62657 120.506 1.4737 120.159 1.4737V1.47673V1.47522ZM120.693 3.25062L120.258 2.63309C120.231 2.63612 120.203 2.63611 120.174 2.63611H119.695V3.25062H119.299V1.14375H120.174C120.734 1.14375 121.081 1.42678 121.081 1.89296C121.081 2.21081 120.917 2.44692 120.626 2.56044L121.117 3.25213H120.69H120.693V3.25062Z" fill="var(--fill-0, #EED410)"/>
<path id="Vector_15" d="M120.086 4.05179C119.055 4.05179 118.217 3.22387 118.217 2.20222C118.217 1.18057 119.055 0.352657 120.086 0.352657C121.117 0.352657 121.955 1.18057 121.955 2.20222C121.955 3.22387 121.117 4.05179 120.086 4.05179ZM120.086 0C118.857 0 117.86 0.988352 117.86 2.20374C117.86 3.41912 118.857 4.40748 120.086 4.40748C121.314 4.40748 122.312 3.41912 122.312 2.20374C122.312 0.988352 121.314 0 120.086 0Z" fill="var(--fill-0, #EED410)"/>
<path id="Vector_16" d="M98.4434 159.837V139.754H114.672V143.568H105.341V147.441H112.615V151.257H105.341V159.837H98.4434Z" fill="var(--fill-0, #EED410)"/>
<path id="Vector_17" d="M116.512 159.837V139.754H132.739V143.568H123.409V147.441H130.682V151.257H123.409V155.849H133.318V159.837H116.512Z" fill="var(--fill-0, #EED410)"/>
<path id="Vector_18" d="M143.626 160C136.729 160 135.368 158.91 134.991 154.003L134.934 153.23H140.438L140.555 153.834C140.902 155.669 141.889 156.732 143.888 156.732C145.338 156.732 146.235 156.016 146.235 154.923C146.235 154.033 145.888 153.634 144.497 153.26L139.949 152.025C136.501 151.077 134.993 149.615 134.993 146.4V145.196C134.993 141.123 136.556 139.571 143.106 139.571H144.207C150.843 139.571 152.176 140.634 152.523 145.28L152.58 146.054H147.278L147.191 145.565C146.872 143.814 145.975 142.782 144.09 142.782C142.497 142.782 141.569 143.47 141.569 144.475C141.569 145.249 141.974 145.68 143.337 146.081L148.088 147.458C151.188 148.348 152.551 149.611 152.551 152.509V153.944C152.551 158.506 150.986 160 144.99 160H143.626Z" fill="var(--fill-0, #EED410)"/>
<path id="Vector_19" d="M159.783 159.837V143.742H154.219L154.246 139.754H172.329V143.742H166.765V159.837H159.783Z" fill="var(--fill-0, #EED410)"/>
<path id="Vector_20" d="M181.091 139.754H174.311V159.837H181.091V139.754Z" fill="var(--fill-0, #EED410)"/>
<path id="Vector_21" d="M188.022 159.837L183.064 139.754H190.019L192.947 152.176H193.064L196.018 139.754H201.64L196.684 159.837H188.019H188.022Z" fill="var(--fill-0, #EED410)"/>
<path id="Vector_22" d="M208.744 146.209H208.627L206.799 153.497H210.566L208.739 146.209H208.742H208.744ZM213.874 139.754L218.827 159.837H212.02L211.44 157.485H205.936L205.326 159.837H199.791L204.747 139.754H213.876H213.874Z" fill="var(--fill-0, #EED410)"/>
<path id="Vector_23" d="M220.795 159.837V139.754H227.75V155.849H236.964V159.837H220.795Z" fill="var(--fill-0, #EED410)"/>
</g>
</svg>
