<svg preserveAspectRatio="none" width="100%" height="100%" overflow="visible" style="display: block;" viewBox="0 0 94 400" fill="none" xmlns="http://www.w3.org/2000/svg">
<g id="Vector">
<path d="M59.7668 347.88C56.6719 344.34 53.8866 340.423 51.259 336.46C40.4381 319.981 32.3418 301.53 26.0806 282.535C24.6941 278.193 23.1528 273.173 21.9643 268.753C21.5183 267.039 20.8607 264.658 20.427 262.955C19.9127 260.767 18.9433 256.958 18.478 254.78C18.0141 252.584 17.3865 249.923 16.9587 247.734C16.6506 246.157 15.8753 242.176 15.5773 240.655C15.2123 238.504 14.5216 234.519 14.1554 232.355C13.8381 230.182 13.2429 226.223 12.9147 224.02C12.5865 221.303 12.0231 217.152 11.7226 214.458C7.68706 179.391 8.62044 143.643 15.4769 109.285C19.2829 90.4285 24.5088 71.7832 32.2925 54.4714C21.7049 70.2714 14.6503 88.6904 9.36537 107.424C-0.465556 142.97 -2.24232 181.101 2.56515 218.074C2.77459 219.591 3.35257 223.88 3.57317 225.465C3.84263 227.127 4.5203 231.23 4.78212 232.827C5.23958 235.606 6.11588 239.826 6.63694 242.599C7.46989 246.322 8.47363 251.03 9.4526 254.703C9.65071 255.448 10.1711 257.581 10.3665 258.314C10.5963 259.193 11.7983 263.346 12.0534 264.289C12.795 266.933 13.8064 269.959 14.6119 272.583C15.1603 274.193 16.4703 278.009 17.0386 279.608C17.6626 281.288 18.5906 283.714 19.2179 285.395C24.6303 299.144 31.3108 312.443 39.4507 324.509C43.534 330.487 47.9745 336.254 52.8829 341.436C55.0501 343.702 57.3376 345.968 59.7701 347.881L59.7668 347.88Z" fill="url(#paint0_linear_0_4)"/>
<path d="M39.6159 342.034C44.1737 352.271 53.1047 363.31 63.8397 368.552C64.3108 368.668 68.981 362.159 69.3466 361.923C69.3333 365.257 69.198 368.243 69.4274 372.077C69.4395 372.29 69.5501 372.488 69.698 372.641C70.9869 373.986 75.7847 376.899 75.7847 376.899C73.8173 376.922 72.1677 376.709 69.6146 377.234C68.7037 379.096 69.2388 382.374 69.4669 384.519C67.8245 382.266 65.8428 379.214 64.0208 377.189C63.4189 376.52 62.6198 376.059 61.7376 375.873C60.7482 375.664 59.5897 375.602 58.6316 375.602C60.3131 374.327 60.8316 372.872 59.6209 371.186C57.9479 368.854 56.2271 366.816 54.0322 364.45L53.2096 364.929L54.948 370.409C56.2696 375.024 47.8459 376.909 44.9231 378.705L45.1178 379.635C50.0293 379.858 55.9689 379.387 60.6649 380.48C66.4791 386.576 71.2607 394.011 77.363 400L78.1739 399.508C76.8186 395.668 73.5113 384.412 74.4956 382.698C74.5701 382.455 74.802 381.719 76.5385 381.557C82.559 381.452 87.8515 384.04 93.6234 385.227L94 384.347C87.3808 379.72 79.8858 375.099 74.0722 369.521C73.2881 363.598 74.0054 355.597 74.9939 348.07L74.1317 347.738C72.2849 350.599 66.1871 358.81 62.9021 360.948C51.3279 355.952 39.7639 341.261 40.4558 341.56L39.6126 342.04L39.6161 342.036L39.6159 342.034Z" fill="url(#paint1_linear_0_4)"/>
<path d="M13.5792 63.9458C16.1577 53.0434 22.8846 40.5427 32.4605 33.4057C32.9019 33.2045 38.6995 38.7366 39.1025 38.9002C38.4706 35.6266 37.7833 32.718 37.2969 28.9073C37.2693 28.6958 37.3413 28.4814 37.4581 28.3028C38.475 26.7429 42.6489 22.9924 42.6489 22.9924C40.7114 23.3344 39.1298 23.8483 36.5235 23.8052C35.2827 22.1438 35.2001 18.8242 35.026 16.6737C33.8304 19.1919 32.4496 22.5578 31.0351 24.8849C30.5677 25.6533 29.868 26.2538 29.0356 26.5998C28.1022 26.9887 26.9753 27.2641 26.0337 27.4409C27.9229 28.3828 28.7026 29.7171 27.8259 31.598C26.6146 34.1989 25.302 36.5203 23.5844 39.2509L22.6871 38.9323L23.378 33.2254C23.8199 28.4459 15.1923 28.1522 11.9867 26.9283L12.0054 25.9786C16.7905 24.8511 22.7145 24.2144 27.1264 22.2718C31.708 15.2049 35.0265 7.01393 39.9113 0L40.7996 0.333671C40.1806 4.35723 39.0201 16.0301 40.3056 17.5326C40.4239 17.7576 40.7885 18.438 42.5249 18.276C48.4607 17.2655 53.1809 13.7426 58.6325 11.5082L59.166 12.3032C53.5205 18.0752 47.0131 24.0025 42.3358 30.5598C42.6648 36.5249 44.855 44.2546 47.2238 51.4686L46.4382 51.9546C44.0922 49.4846 36.5758 42.5447 32.9508 41.0516C22.5046 48.1022 13.8682 64.6785 14.4926 64.2565L13.5749 63.9411L13.5791 63.9446L13.5792 63.9458Z" fill="url(#paint2_linear_0_4)"/>
</g>
<defs>
<linearGradient id="paint0_linear_0_4" x1="47" y1="0" x2="47" y2="400" gradientUnits="userSpaceOnUse">
<stop stop-color="#EED410"/>
<stop offset="1" stop-color="#EED410" stop-opacity="0"/>
</linearGradient>
<linearGradient id="paint1_linear_0_4" x1="47" y1="0" x2="47" y2="400" gradientUnits="userSpaceOnUse">
<stop stop-color="#EED410"/>
<stop offset="1" stop-color="#EED410" stop-opacity="0"/>
</linearGradient>
<linearGradient id="paint2_linear_0_4" x1="47" y1="0" x2="47" y2="400" gradientUnits="userSpaceOnUse">
<stop stop-color="#EED410"/>
<stop offset="1" stop-color="#EED410" stop-opacity="0"/>
</linearGradient>
</defs>
</svg>
