<svg preserveAspectRatio="none" width="100%" height="100%" overflow="visible" style="display: block;" viewBox="0 0 825.569 819.424" fill="none" xmlns="http://www.w3.org/2000/svg">
<g id="Vector">
<path d="M291.953 73.8H251.809V1H290.809C296.737 1 299.337 1.104 302.769 1.52C312.649 2.872 317.537 8.488 317.537 17.64V21.488C317.537 28.352 314.313 33.344 307.761 35.736V36.152C315.249 38.544 318.681 44.056 318.681 52.688V55.808C318.681 66.208 313.897 71.928 303.913 73.28C300.481 73.696 297.881 73.8 291.953 73.8ZM276.769 14.832V29.704H286.961C289.561 29.704 291.121 29.496 292.265 28.976C294.449 27.832 295.801 25.856 295.801 22.216C295.801 18.68 294.449 16.704 292.265 15.56C291.121 15.04 289.561 14.832 286.961 14.832H276.769ZM276.769 43.848V59.76H286.961C289.561 59.76 291.121 59.552 292.265 58.928C294.449 57.784 295.801 55.6 295.801 51.752C295.801 48.008 294.449 45.824 292.265 44.68C291.121 44.056 289.561 43.848 286.961 43.848H276.769ZM335.763 1H368.523L386.307 73.8H361.867L359.787 65.272H340.027L337.843 73.8H317.979L335.763 1ZM356.667 50.816L350.115 24.4H349.699L343.147 50.816H356.667ZM410.25 73.8H388.41V1H420.858L430.53 39.272H430.946L440.722 1H472.754V73.8H450.914V28.872H450.498L438.642 73.8H422.626L410.666 28.872H410.25V73.8ZM517.015 73.8H476.871V1H515.871C521.799 1 524.399 1.104 527.831 1.52C537.711 2.872 542.599 8.488 542.599 17.64V21.488C542.599 28.352 539.375 33.344 532.823 35.736V36.152C540.311 38.544 543.743 44.056 543.743 52.688V55.808C543.743 66.208 538.959 71.928 528.975 73.28C525.543 73.696 522.943 73.8 517.015 73.8ZM501.831 14.832V29.704H512.023C514.623 29.704 516.183 29.496 517.327 28.976C519.511 27.832 520.863 25.856 520.863 22.216C520.863 18.68 519.511 16.704 517.327 15.56C516.183 15.04 514.623 14.832 512.023 14.832H501.831ZM501.831 43.848V59.76H512.023C514.623 59.76 516.183 59.552 517.327 58.928C519.511 57.784 520.863 55.6 520.863 51.752C520.863 48.008 519.511 45.824 517.327 44.68C516.183 44.056 514.623 43.848 512.023 43.848H501.831ZM571.387 73.8H547.051V1H571.387V73.8Z" stroke="url(#paint0_linear_0_29)" stroke-width="2"/>
<path d="M270.472 166.8H245.512V94H270.472V123.12H270.888L288.776 94H314.672L293.352 128.008L314.568 166.8H288.256L270.888 133.832H270.472V166.8ZM346.084 167.424C324.452 167.424 314.468 166.28 314.468 146.728V94H339.948V144.856C339.948 151.512 341.82 154.216 346.604 154.216H347.852C352.636 154.216 354.508 151.512 354.508 144.856V94H376.972V146.728C376.972 166.384 366.78 167.424 346.084 167.424ZM405.855 166.8H380.895V94H405.855V123.12H406.271L424.159 94H450.055L428.735 128.008L449.951 166.8H423.639L406.271 133.832H405.855V166.8ZM478.42 167.424C456.58 167.424 445.868 165.344 446.492 145.688C446.7 140.592 446.7 135.496 446.7 130.4C446.7 125.304 446.7 120.208 446.492 115.112C445.868 95.248 456.892 93.376 478.42 93.376C499.948 93.376 510.972 95.248 510.348 115.112C510.14 120.208 510.14 125.304 510.14 130.4C510.14 135.496 510.14 140.592 510.348 145.688C510.972 165.344 500.26 167.424 478.42 167.424ZM478.42 155.36C483.412 155.36 485.7 152.656 485.7 146C485.7 140.8 485.596 135.6 485.596 130.4C485.596 125.304 485.7 120.104 485.7 114.904C485.7 108.248 483.412 105.544 478.42 105.544C473.428 105.544 471.14 108.248 471.14 114.904C471.14 120.104 471.244 125.304 471.244 130.4C471.244 135.6 471.14 140.8 471.14 146C471.14 152.656 473.428 155.36 478.42 155.36ZM535.781 166.8H513.941V94H539.629L555.333 135.6H555.749V94H577.693V166.8H552.317L536.197 125.616H535.781V166.8Z" stroke="url(#paint1_linear_0_29)" stroke-width="2"/>
<path d="M272.57 259.8H211.418V244.512L243.97 201.872V201.456H211.418V187H272.57V202.288L239.81 244.928V245.344H272.57V259.8ZM291.634 187H324.394L342.178 259.8H317.738L315.658 251.272H295.898L293.714 259.8H273.85L291.634 187ZM312.538 236.816L305.986 210.4H305.57L299.018 236.816H312.538ZM384.425 259.8H344.281V187H383.281C389.209 187 391.809 187.104 395.241 187.52C405.121 188.872 410.009 194.488 410.009 203.64V207.488C410.009 214.352 406.785 219.344 400.233 221.736V222.152C407.721 224.544 411.153 230.056 411.153 238.688V241.808C411.153 252.208 406.369 257.928 396.385 259.28C392.953 259.696 390.353 259.8 384.425 259.8ZM369.241 200.832V215.704H379.433C382.033 215.704 383.593 215.496 384.737 214.976C386.921 213.832 388.273 211.856 388.273 208.216C388.273 204.68 386.921 202.704 384.737 201.56C383.593 201.04 382.033 200.832 379.433 200.832H369.241ZM369.241 229.848V245.76H379.433C382.033 245.76 383.593 245.552 384.737 244.928C386.921 243.784 388.273 241.6 388.273 237.752C388.273 234.008 386.921 231.824 384.737 230.68C383.593 230.056 382.033 229.848 379.433 229.848H369.241ZM449.717 260.424H444.829C420.077 260.424 415.189 256.472 413.837 238.688L413.629 235.88H433.389L433.805 238.064C435.053 244.72 438.589 248.568 445.765 248.568C450.965 248.568 454.189 245.968 454.189 242.016C454.189 238.792 452.941 237.336 447.949 235.984L431.621 231.512C419.245 228.08 413.837 222.776 413.837 211.128V206.76C413.837 191.992 419.453 186.376 442.957 186.376H446.909C470.725 186.376 475.509 190.224 476.757 207.072L476.965 209.88H457.933L457.621 208.112C456.477 201.768 453.253 198.024 446.493 198.024C440.773 198.024 437.445 200.52 437.445 204.16C437.445 206.968 438.901 208.528 443.789 209.984L460.845 214.976C471.973 218.2 476.861 222.776 476.861 233.28V238.48C476.861 255.016 471.245 260.424 449.717 260.424ZM511.681 260.424C489.841 260.424 479.129 258.344 479.753 238.688C479.961 233.592 479.961 228.496 479.961 223.4C479.961 218.304 479.961 213.208 479.753 208.112C479.129 188.248 490.153 186.376 511.681 186.376C533.209 186.376 544.233 188.248 543.609 208.112C543.401 213.208 543.401 218.304 543.401 223.4C543.401 228.496 543.401 233.592 543.609 238.688C544.233 258.344 533.521 260.424 511.681 260.424ZM511.681 248.36C516.673 248.36 518.961 245.656 518.961 239C518.961 233.8 518.857 228.6 518.857 223.4C518.857 218.304 518.961 213.104 518.961 207.904C518.961 201.248 516.673 198.544 511.681 198.544C506.689 198.544 504.401 201.248 504.401 207.904C504.401 213.104 504.505 218.304 504.505 223.4C504.505 228.6 504.401 233.8 504.401 239C504.401 245.656 506.689 248.36 511.681 248.36ZM569.043 259.8H547.203V187H572.891L588.595 228.6H589.011V187H610.955V259.8H585.579L569.459 218.616H569.043V259.8Z" stroke="url(#paint2_linear_0_29)" stroke-width="2"/>
<path d="M22.84 352.8H1V280H33.448L43.12 318.272H43.536L53.312 280H85.344V352.8H63.504V307.872H63.088L51.232 352.8H35.216L23.256 307.872H22.84V352.8ZM105.165 280H137.925L155.709 352.8H131.269L129.189 344.272H109.429L107.245 352.8H87.3809L105.165 280ZM126.069 329.816L119.517 303.4H119.101L112.549 329.816H126.069ZM215.844 352.8H157.812V280H182.773V338.344H215.844V352.8ZM243.492 352.8H219.156V280H243.492V352.8ZM272.655 352.8H247.695V280H272.655V309.12H273.071L290.959 280H316.855L295.535 314.008L316.751 352.8H290.439L273.071 319.832H272.655V352.8ZM360.535 352.8H338.695V280H371.143L380.815 318.272H381.231L391.007 280H423.039V352.8H401.199V307.872H400.783L388.927 352.8H372.911L360.951 307.872H360.535V352.8ZM458.564 353.424C436.724 353.424 426.012 351.344 426.636 331.688C426.844 326.592 426.844 321.496 426.844 316.4C426.844 311.304 426.844 306.208 426.636 301.112C426.012 281.248 437.036 279.376 458.564 279.376C480.092 279.376 491.116 281.248 490.492 301.112C490.284 306.208 490.284 311.304 490.284 316.4C490.284 321.496 490.284 326.592 490.492 331.688C491.116 351.344 480.404 353.424 458.564 353.424ZM458.564 341.36C463.556 341.36 465.844 338.656 465.844 332C465.844 326.8 465.74 321.6 465.74 316.4C465.74 311.304 465.844 306.104 465.844 300.904C465.844 294.248 463.556 291.544 458.564 291.544C453.572 291.544 451.284 294.248 451.284 300.904C451.284 306.104 451.388 311.304 451.388 316.4C451.388 321.6 451.284 326.8 451.284 332C451.284 338.656 453.572 341.36 458.564 341.36ZM515.926 352.8H494.086V280H519.774L535.478 321.6H535.894V280H557.838V352.8H532.462L516.342 311.616H515.926V352.8ZM606.231 352.8H581.167V294.456H561.199L561.303 280H626.199V294.456H606.231V352.8ZM637.454 280H670.214L687.998 352.8H663.558L661.478 344.272H641.718L639.534 352.8H619.67L637.454 280ZM658.358 329.816L651.806 303.4H651.39L644.838 329.816H658.358ZM711.942 352.8H690.102V280H715.79L731.494 321.6H731.91V280H753.854V352.8H728.478L712.358 311.616H711.942V352.8ZM773.751 280H806.511L824.295 352.8H799.855L797.775 344.272H778.015L775.831 352.8H755.967L773.751 280ZM794.655 329.816L788.103 303.4H787.687L781.135 329.816H794.655Z" stroke="url(#paint3_linear_0_29)" stroke-width="2"/>
<path d="M305.612 445.8H280.652V373H305.612V402.12H306.028L323.916 373H349.812L328.492 407.008L349.708 445.8H323.396L306.028 412.832H305.612V445.8ZM381.224 446.424C359.592 446.424 349.608 445.28 349.608 425.728V373H375.088V423.856C375.088 430.512 376.96 433.216 381.744 433.216H382.992C387.776 433.216 389.648 430.512 389.648 423.856V373H412.112V425.728C412.112 445.384 401.92 446.424 381.224 446.424ZM479.371 424.688C479.891 440.392 473.131 444.864 459.195 446.008V457.656H435.691V446.008C421.755 444.864 414.995 440.392 415.515 424.688C415.723 419.592 415.723 414.496 415.723 409.4C415.723 404.304 415.723 399.208 415.515 394.112C414.891 374.248 425.915 372.376 447.443 372.376C468.971 372.376 479.995 374.248 479.371 394.112C479.163 399.208 479.163 404.304 479.163 409.4C479.163 414.496 479.163 419.592 479.371 424.688ZM440.163 393.904C440.163 399.104 440.267 404.304 440.267 409.4C440.267 414.6 440.163 419.8 440.163 425C440.163 431.656 442.451 434.36 447.443 434.36C452.435 434.36 454.723 431.656 454.723 425C454.723 419.8 454.619 414.6 454.619 409.4C454.619 404.304 454.723 399.104 454.723 393.904C454.723 387.248 452.435 384.544 447.443 384.544C442.451 384.544 440.163 387.248 440.163 393.904ZM543.285 445.8H482.965V373H541.205V386.832H507.717V400.872H533.821V414.704H507.717V431.344H543.285V445.8Z" stroke="url(#paint4_linear_0_29)" stroke-width="2"/>
<path d="M222.318 538.8H197.462V509.992L174.166 466H200.582L211.71 487.528H212.126L223.358 466H245.51L222.318 509.992V538.8ZM274.178 539.424C252.338 539.424 241.626 537.344 242.25 517.688C242.458 512.592 242.458 507.496 242.458 502.4C242.458 497.304 242.458 492.208 242.25 487.112C241.626 467.248 252.65 465.376 274.178 465.376C295.706 465.376 306.73 467.248 306.106 487.112C305.898 492.208 305.898 497.304 305.898 502.4C305.898 507.496 305.898 512.592 306.106 517.688C306.73 537.344 296.018 539.424 274.178 539.424ZM274.178 527.36C279.17 527.36 281.458 524.656 281.458 518C281.458 512.8 281.354 507.6 281.354 502.4C281.354 497.304 281.458 492.104 281.458 486.904C281.458 480.248 279.17 477.544 274.178 477.544C269.186 477.544 266.898 480.248 266.898 486.904C266.898 492.104 267.002 497.304 267.002 502.4C267.002 507.6 266.898 512.8 266.898 518C266.898 524.656 269.186 527.36 274.178 527.36ZM341.107 539.424C319.475 539.424 309.491 538.28 309.491 518.728V466H334.971V516.856C334.971 523.512 336.843 526.216 341.627 526.216H342.875C347.659 526.216 349.531 523.512 349.531 516.856V466H371.995V518.728C371.995 538.384 361.803 539.424 341.107 539.424ZM397.758 538.8H375.918V466H401.606L417.31 507.6H417.726V466H439.67V538.8H414.294L398.174 497.616H397.758V538.8ZM470.695 539.424C450.831 539.424 443.343 534.848 443.343 519.664C443.343 516.856 443.655 513.84 443.655 502.608C443.655 491.168 443.551 489.608 443.551 485.032C443.551 474.216 446.983 469.224 455.823 466.832C459.879 465.792 465.391 465.376 474.335 465.376C482.447 465.376 487.127 465.688 490.871 466.52C500.751 468.6 504.599 473.696 505.119 485.552L505.535 494.912H486.711L486.295 489.4C485.671 481.392 483.487 478.688 477.767 478.688C471.943 478.688 469.447 481.6 469.447 488.568C469.447 493.144 469.759 497.928 469.759 502.608C469.759 506.768 469.551 511.032 469.551 515.296C469.551 523.2 472.151 526.528 478.183 526.528C483.903 526.528 486.399 523.928 486.815 517.48L486.919 515.712H475.375V501.048H505.327V538.8H489.311V533.184H488.895C485.775 537.448 479.639 539.424 470.695 539.424ZM553.207 538.8H528.871V466H553.207V538.8ZM584.242 539.424C564.378 539.424 556.89 534.848 556.89 519.664C556.89 516.856 557.202 513.84 557.202 502.608C557.202 491.168 557.098 489.608 557.098 485.032C557.098 474.216 560.53 469.224 569.37 466.832C573.426 465.792 578.938 465.376 587.882 465.376C595.994 465.376 600.674 465.688 604.418 466.52C614.298 468.6 618.146 473.696 618.666 485.552L619.082 494.912H600.258L599.842 489.4C599.218 481.392 597.034 478.688 591.314 478.688C585.49 478.688 582.994 481.6 582.994 488.568C582.994 493.144 583.306 497.928 583.306 502.608C583.306 506.768 583.098 511.032 583.098 515.296C583.098 523.2 585.698 526.528 591.73 526.528C597.45 526.528 599.946 523.928 600.362 517.48L600.466 515.712H588.922V501.048H618.874V538.8H602.858V533.184H602.442C599.322 537.448 593.186 539.424 584.242 539.424ZM646.949 538.8H622.613V466H646.949V538.8Z" stroke="url(#paint5_linear_0_29)" stroke-width="2"/>
<path d="M350.249 631.8H310.105V559H349.105C355.033 559 357.633 559.104 361.065 559.52C370.945 560.872 375.833 566.488 375.833 575.64V579.488C375.833 586.352 372.609 591.344 366.057 593.736V594.152C373.545 596.544 376.977 602.056 376.977 610.688V613.808C376.977 624.208 372.193 629.928 362.209 631.28C358.777 631.696 356.177 631.8 350.249 631.8ZM335.065 572.832V587.704H345.257C347.857 587.704 349.417 587.496 350.561 586.976C352.745 585.832 354.097 583.856 354.097 580.216C354.097 576.68 352.745 574.704 350.561 573.56C349.417 573.04 347.857 572.832 345.257 572.832H335.065ZM335.065 601.848V617.76H345.257C347.857 617.76 349.417 617.552 350.561 616.928C352.745 615.784 354.097 613.6 354.097 609.752C354.097 606.008 352.745 603.824 350.561 602.68C349.417 602.056 347.857 601.848 345.257 601.848H335.065ZM415.541 632.424H410.653C385.901 632.424 381.013 628.472 379.661 610.688L379.453 607.88H399.213L399.629 610.064C400.877 616.72 404.413 620.568 411.589 620.568C416.789 620.568 420.013 617.968 420.013 614.016C420.013 610.792 418.765 609.336 413.773 607.984L397.445 603.512C385.069 600.08 379.661 594.776 379.661 583.128V578.76C379.661 563.992 385.277 558.376 408.781 558.376H412.733C436.549 558.376 441.333 562.224 442.581 579.072L442.789 581.88H423.757L423.445 580.112C422.301 573.768 419.077 570.024 412.317 570.024C406.597 570.024 403.269 572.52 403.269 576.16C403.269 578.968 404.725 580.528 409.613 581.984L426.669 586.976C437.797 590.2 442.685 594.776 442.685 605.28V610.48C442.685 627.016 437.069 632.424 415.541 632.424ZM471.058 631.8H446.098V559H471.058V588.12H471.474L489.362 559H515.258L493.938 593.008L515.154 631.8H488.842L471.474 598.832H471.058V631.8Z" stroke="url(#paint6_linear_0_29)" stroke-width="2"/>
<path d="M345.671 724.8H314.575L296.791 652H321.751L332.255 697.032H332.671L343.279 652H363.455L345.671 724.8ZM389.96 724.8H365V652H389.96V681.12H390.376L408.264 652H434.16L412.84 686.008L434.056 724.8H407.744L390.376 691.832H389.96V724.8ZM460.023 724.8H435.688V652H460.023V724.8ZM524.547 724.8H464.227V652H522.467V665.832H488.979V679.872H515.083V693.704H488.979V710.344H524.547V724.8Z" stroke="url(#paint7_linear_0_29)" stroke-width="2"/>
<path d="M106.223 817.8H84.3828V745H116.831L126.503 783.272H126.919L136.695 745H168.727V817.8H146.887V772.872H146.471L134.615 817.8H118.599L106.639 772.872H106.223V817.8ZM230.876 817.8H172.844V745H197.804V803.344H230.876V817.8ZM265.392 818.424C243.552 818.424 232.84 816.344 233.464 796.688C233.672 791.592 233.672 786.496 233.672 781.4C233.672 776.304 233.672 771.208 233.464 766.112C232.84 746.248 243.864 744.376 265.392 744.376C286.92 744.376 297.944 746.248 297.32 766.112C297.112 771.208 297.112 776.304 297.112 781.4C297.112 786.496 297.112 791.592 297.32 796.688C297.944 816.344 287.232 818.424 265.392 818.424ZM265.392 806.36C270.384 806.36 272.672 803.656 272.672 797C272.672 791.8 272.568 786.6 272.568 781.4C272.568 776.304 272.672 771.104 272.672 765.904C272.672 759.248 270.384 756.544 265.392 756.544C260.4 756.544 258.112 759.248 258.112 765.904C258.112 771.104 258.216 776.304 258.216 781.4C258.216 786.6 258.112 791.8 258.112 797C258.112 803.656 260.4 806.36 265.392 806.36ZM341.786 817.8H300.914V745H341.786C355.514 745 363.522 752.384 363.522 765.904C363.522 771 363.418 776.304 363.418 781.4C363.418 786.496 363.522 791.696 363.522 796.896C363.522 810.416 355.514 817.8 341.786 817.8ZM325.77 757.688V805.112H332.53C337.106 805.112 339.706 803.136 339.706 797.416V765.384C339.706 759.664 337.106 757.688 332.53 757.688H325.77ZM407.314 817.8H382.458V788.992L359.162 745H385.578L396.706 766.528H397.122L408.354 745H430.506L407.314 788.992V817.8ZM489.68 817.8H467.944L450.264 745H475.328L483.544 781.4H483.96L491.136 745H509.128L516.096 781.4H516.512L525.144 745H544.8L527.12 817.8H504.968L497.376 781.712H496.96L489.68 817.8ZM607.218 817.8H546.898V745H605.138V758.832H571.65V772.872H597.754V786.704H571.65V803.344H607.218V817.8ZM645.428 818.424H640.54C615.788 818.424 610.9 814.472 609.548 796.688L609.34 793.88H629.1L629.516 796.064C630.764 802.72 634.3 806.568 641.476 806.568C646.676 806.568 649.9 803.968 649.9 800.016C649.9 796.792 648.652 795.336 643.66 793.984L627.332 789.512C614.956 786.08 609.548 780.776 609.548 769.128V764.76C609.548 749.992 615.164 744.376 638.668 744.376H642.62C666.436 744.376 671.22 748.224 672.468 765.072L672.676 767.88H653.644L653.332 766.112C652.188 759.768 648.964 756.024 642.204 756.024C636.484 756.024 633.156 758.52 633.156 762.16C633.156 764.968 634.612 766.528 639.5 767.984L656.556 772.976C667.684 776.2 672.572 780.776 672.572 791.28V796.48C672.572 813.016 666.956 818.424 645.428 818.424ZM719.677 817.8H694.613V759.456H674.645L674.749 745H739.645V759.456H719.677V817.8Z" stroke="url(#paint8_linear_0_29)" stroke-width="2"/>
</g>
<defs>
<linearGradient id="paint0_linear_0_29" x1="412.647" y1="1" x2="412.647" y2="818.424" gradientUnits="userSpaceOnUse">
<stop stop-color="#EED410"/>
<stop offset="0.370192" stop-color="#EED410" stop-opacity="0"/>
</linearGradient>
<linearGradient id="paint1_linear_0_29" x1="412.647" y1="1" x2="412.647" y2="818.424" gradientUnits="userSpaceOnUse">
<stop stop-color="#EED410"/>
<stop offset="0.370192" stop-color="#EED410" stop-opacity="0"/>
</linearGradient>
<linearGradient id="paint2_linear_0_29" x1="412.647" y1="1" x2="412.647" y2="818.424" gradientUnits="userSpaceOnUse">
<stop stop-color="#EED410"/>
<stop offset="0.370192" stop-color="#EED410" stop-opacity="0"/>
</linearGradient>
<linearGradient id="paint3_linear_0_29" x1="412.647" y1="1" x2="412.647" y2="818.424" gradientUnits="userSpaceOnUse">
<stop stop-color="#EED410"/>
<stop offset="0.370192" stop-color="#EED410" stop-opacity="0"/>
</linearGradient>
<linearGradient id="paint4_linear_0_29" x1="412.647" y1="1" x2="412.647" y2="818.424" gradientUnits="userSpaceOnUse">
<stop stop-color="#EED410"/>
<stop offset="0.370192" stop-color="#EED410" stop-opacity="0"/>
</linearGradient>
<linearGradient id="paint5_linear_0_29" x1="412.647" y1="1" x2="412.647" y2="818.424" gradientUnits="userSpaceOnUse">
<stop stop-color="#EED410"/>
<stop offset="0.370192" stop-color="#EED410" stop-opacity="0"/>
</linearGradient>
<linearGradient id="paint6_linear_0_29" x1="412.647" y1="1" x2="412.647" y2="818.424" gradientUnits="userSpaceOnUse">
<stop stop-color="#EED410"/>
<stop offset="0.370192" stop-color="#EED410" stop-opacity="0"/>
</linearGradient>
<linearGradient id="paint7_linear_0_29" x1="412.647" y1="1" x2="412.647" y2="818.424" gradientUnits="userSpaceOnUse">
<stop stop-color="#EED410"/>
<stop offset="0.370192" stop-color="#EED410" stop-opacity="0"/>
</linearGradient>
<linearGradient id="paint8_linear_0_29" x1="412.647" y1="1" x2="412.647" y2="818.424" gradientUnits="userSpaceOnUse">
<stop stop-color="#EED410"/>
<stop offset="0.370192" stop-color="#EED410" stop-opacity="0"/>
</linearGradient>
</defs>
</svg>
