<svg preserveAspectRatio="none" width="100%" height="100%" overflow="visible" style="display: block;" viewBox="0 0 355 48" fill="none" xmlns="http://www.w3.org/2000/svg">
<g id="Frame 277">
<path id="Vector" d="M0.00440381 47.6885C2.78819 39.4196 8.89581 30.2114 16.8188 25.3693C17.1746 25.2452 21.2579 29.9555 21.5581 30.1116C21.3063 27.527 20.9857 25.2215 20.885 22.231C20.879 22.065 20.9505 21.9039 21.0533 21.7737C21.953 20.6375 25.4523 18.0309 25.4523 18.0309C23.9289 18.1561 22.6685 18.4401 20.6557 18.2179C19.8165 16.8395 19.993 14.2588 20.0139 12.5788C18.9069 14.4452 17.5953 16.9559 16.3326 18.658C15.9152 19.22 15.3306 19.6354 14.6619 19.8433C13.9118 20.0771 13.0203 20.2095 12.279 20.2785C13.672 21.1455 14.1785 22.237 13.3641 23.6325C12.2389 25.5618 11.0554 27.2672 9.52934 29.2605L8.85842 28.9484L9.80596 24.5723C10.4939 20.8973 3.84242 20.0452 1.45184 18.8637L1.53488 18.1285C5.31736 17.6007 9.94509 17.5356 13.4982 16.3481C17.5535 11.1988 20.7134 5.08644 24.9991 0L25.6618 0.323212C24.8919 3.39923 23.1486 12.3681 24.0345 13.6262C24.1099 13.8093 24.3425 14.3636 25.697 14.3636C30.361 14.0095 34.2667 11.6191 38.6447 10.2804L39 10.9357C34.2155 15.0034 28.7535 19.1296 24.6615 23.8768C24.4838 28.527 25.6183 34.6807 26.9277 40.4466L26.2849 40.7665C24.6494 38.6811 19.3386 32.7546 16.6433 31.3344C8.0533 36.0463 0.17378 48.2776 0.686873 47.9952L0 47.6841L0.00275238 47.6869V47.688L0.00440381 47.6885Z" fill="var(--fill-0, #EED410)"/>
<path id="Vector_2" d="M79.0044 47.6885C81.7882 39.4196 87.8958 30.2114 95.8188 25.3693C96.1746 25.2452 100.258 29.9555 100.558 30.1116C100.306 27.527 99.9857 25.2215 99.885 22.231C99.879 22.065 99.9505 21.9039 100.053 21.7737C100.953 20.6375 104.452 18.0309 104.452 18.0309C102.929 18.1561 101.668 18.4401 99.6557 18.2179C98.8165 16.8395 98.993 14.2588 99.0139 12.5788C97.9069 14.4452 96.5953 16.9559 95.3326 18.658C94.9152 19.22 94.3306 19.6354 93.6619 19.8433C92.9118 20.0771 92.0203 20.2095 91.279 20.2785C92.672 21.1455 93.1785 22.237 92.3641 23.6325C91.2389 25.5618 90.0554 27.2672 88.5293 29.2605L87.8584 28.9484L88.806 24.5723C89.4939 20.8973 82.8424 20.0452 80.4518 18.8637L80.5349 18.1285C84.3174 17.6007 88.9451 17.5356 92.4982 16.3481C96.5535 11.1988 99.7134 5.08644 103.999 0L104.662 0.323212C103.892 3.39923 102.149 12.3681 103.035 13.6262C103.11 13.8093 103.342 14.3636 104.697 14.3636C109.361 14.0095 113.267 11.6191 117.645 10.2804L118 10.9357C113.216 15.0034 107.754 19.1296 103.661 23.8768C103.484 28.527 104.618 34.6807 105.928 40.4466L105.285 40.7665C103.649 38.6811 98.3386 32.7546 95.6433 31.3344C87.0533 36.0463 79.1738 48.2776 79.6869 47.9952L79 47.6841L79.0028 47.6869V47.688L79.0044 47.6885Z" fill="var(--fill-0, #EED410)"/>
<path id="Vector_3" d="M158.004 47.6885C160.788 39.4196 166.896 30.2114 174.819 25.3693C175.175 25.2452 179.258 29.9555 179.558 30.1116C179.306 27.527 178.986 25.2215 178.885 22.231C178.879 22.065 178.95 21.9039 179.053 21.7737C179.953 20.6375 183.452 18.0309 183.452 18.0309C181.929 18.1561 180.668 18.4401 178.656 18.2179C177.816 16.8395 177.993 14.2588 178.014 12.5788C176.907 14.4452 175.595 16.9559 174.333 18.658C173.915 19.22 173.331 19.6354 172.662 19.8433C171.912 20.0771 171.02 20.2095 170.279 20.2785C171.672 21.1455 172.179 22.237 171.364 23.6325C170.239 25.5618 169.055 27.2672 167.529 29.2605L166.858 28.9484L167.806 24.5723C168.494 20.8973 161.842 20.0452 159.452 18.8637L159.535 18.1285C163.317 17.6007 167.945 17.5356 171.498 16.3481C175.553 11.1988 178.713 5.08644 182.999 0L183.662 0.323212C182.892 3.39923 181.149 12.3681 182.035 13.6262C182.11 13.8093 182.342 14.3636 183.697 14.3636C188.361 14.0095 192.267 11.6191 196.645 10.2804L197 10.9357C192.216 15.0034 186.754 19.1296 182.661 23.8768C182.484 28.527 183.618 34.6807 184.928 40.4466L184.285 40.7665C182.649 38.6811 177.339 32.7546 174.643 31.3344C166.053 36.0463 158.174 48.2776 158.687 47.9952L158 47.6841L158.003 47.6869V47.688L158.004 47.6885Z" fill="var(--fill-0, #EED410)"/>
<path id="Vector_4" d="M237.004 47.6885C239.788 39.4196 245.896 30.2114 253.819 25.3693C254.175 25.2452 258.258 29.9555 258.558 30.1116C258.306 27.527 257.986 25.2215 257.885 22.231C257.879 22.065 257.95 21.9039 258.053 21.7737C258.953 20.6375 262.452 18.0309 262.452 18.0309C260.929 18.1561 259.668 18.4401 257.656 18.2179C256.816 16.8395 256.993 14.2588 257.014 12.5788C255.907 14.4452 254.595 16.9559 253.333 18.658C252.915 19.22 252.331 19.6354 251.662 19.8433C250.912 20.0771 250.02 20.2095 249.279 20.2785C250.672 21.1455 251.179 22.237 250.364 23.6325C249.239 25.5618 248.055 27.2672 246.529 29.2605L245.858 28.9484L246.806 24.5723C247.494 20.8973 240.842 20.0452 238.452 18.8637L238.535 18.1285C242.317 17.6007 246.945 17.5356 250.498 16.3481C254.553 11.1988 257.713 5.08644 261.999 0L262.662 0.323212C261.892 3.39923 260.149 12.3681 261.035 13.6262C261.11 13.8093 261.342 14.3636 262.697 14.3636C267.361 14.0095 271.267 11.6191 275.645 10.2804L276 10.9357C271.216 15.0034 265.754 19.1296 261.661 23.8768C261.484 28.527 262.618 34.6807 263.928 40.4466L263.285 40.7665C261.649 38.6811 256.339 32.7546 253.643 31.3344C245.053 36.0463 237.174 48.2776 237.687 47.9952L237 47.6841L237.003 47.6869V47.688L237.004 47.6885Z" fill="var(--fill-0, #EED410)"/>
<path id="Vector_5" d="M316.004 47.6885C318.788 39.4196 324.896 30.2114 332.819 25.3693C333.175 25.2452 337.258 29.9555 337.558 30.1116C337.306 27.527 336.986 25.2215 336.885 22.231C336.879 22.065 336.95 21.9039 337.053 21.7737C337.953 20.6375 341.452 18.0309 341.452 18.0309C339.929 18.1561 338.668 18.4401 336.656 18.2179C335.816 16.8395 335.993 14.2588 336.014 12.5788C334.907 14.4452 333.595 16.9559 332.333 18.658C331.915 19.22 331.331 19.6354 330.662 19.8433C329.912 20.0771 329.02 20.2095 328.279 20.2785C329.672 21.1455 330.179 22.237 329.364 23.6325C328.239 25.5618 327.055 27.2672 325.529 29.2605L324.858 28.9484L325.806 24.5723C326.494 20.8973 319.842 20.0452 317.452 18.8637L317.535 18.1285C321.317 17.6007 325.945 17.5356 329.498 16.3481C333.553 11.1988 336.713 5.08644 340.999 0L341.662 0.323212C340.892 3.39923 339.149 12.3681 340.035 13.6262C340.11 13.8093 340.342 14.3636 341.697 14.3636C346.361 14.0095 350.267 11.6191 354.645 10.2804L355 10.9357C350.216 15.0034 344.754 19.1296 340.661 23.8768C340.484 28.527 341.618 34.6807 342.928 40.4466L342.285 40.7665C340.649 38.6811 335.339 32.7546 332.643 31.3344C324.053 36.0463 316.174 48.2776 316.687 47.9952L316 47.6841L316.003 47.6869V47.688L316.004 47.6885Z" fill="var(--fill-0, #EED410)"/>
</g>
</svg>
