<svg preserveAspectRatio="none" width="100%" height="100%" overflow="visible" style="display: block;" viewBox="0 0 54 148.462" fill="none" xmlns="http://www.w3.org/2000/svg">
<g id="Frame 291">
<path id="Vector" d="M0.00609758 65.5717C3.86057 54.202 12.3173 41.5407 23.2875 34.8828C23.7802 34.7122 29.434 41.1888 29.8497 41.4034C29.501 37.8496 29.0571 34.6796 28.9177 30.5676C28.9093 30.3393 29.0083 30.1179 29.1507 29.9389C30.3965 28.3766 35.2416 24.7925 35.2416 24.7925C33.1324 24.9646 31.3871 25.3552 28.6002 25.0496C27.4382 23.1543 27.6826 19.6058 27.7116 17.2958C26.1788 19.8622 24.3627 23.3144 22.6144 25.6547C22.0365 26.4275 21.227 26.9986 20.3011 27.2845C19.2625 27.6061 18.0282 27.7881 17.0017 27.8829C18.9305 29.0751 19.6318 30.5759 18.5041 32.4946C16.9461 35.1475 15.3075 37.4924 13.1945 40.2332L12.2655 39.804L13.5775 33.7869C14.5301 28.7338 5.32028 27.5621 2.01024 25.9376L2.12522 24.9267C7.3625 24.2009 13.7701 24.1114 18.6899 22.4786C24.3048 15.3983 28.6802 6.99385 34.6142 0L35.5317 0.444416C34.4657 4.67395 32.0519 17.0061 33.2786 18.736C33.3829 18.9878 33.705 19.7499 35.5804 19.7499C42.0383 19.2631 47.4462 15.9762 53.5081 14.1356L54 15.0366C47.3754 20.6297 39.8126 26.3032 34.1466 32.8306C33.9007 39.2246 35.4716 47.6859 37.2846 55.6141L36.3944 56.054C34.1299 53.1865 26.7765 45.0376 23.0446 43.0848C11.1507 49.5637 0.240619 66.3817 0.951055 65.9934L0 65.5657L0.00381099 65.5695V65.571L0.00609758 65.5717Z" fill="var(--fill-0, #141414)"/>
<g id="Group 202">
<path id="Vector_2" d="M24.6558 96.9498L22.0981 107.402H24.9547L25.2688 106.178H28.11L28.4089 107.402H31.9243L29.3666 96.9498H24.6544H24.6558ZM25.7178 104.102L26.6602 100.309H26.72L27.6624 104.102H25.7178Z" fill="var(--fill-0, #141414)"/>
<path id="Vector_3" d="M27.1907 111.591C28.2708 111.566 28.7184 112.318 28.8365 113.293H31.5735C31.6055 110.389 30.253 109.777 26.682 109.919C22.9233 109.88 22.3882 111.011 22.4938 113.472C22.2144 116.091 25.417 116.48 27.4006 117.042C28.8796 117.311 28.4084 118.91 27.0865 118.848C25.9147 118.878 25.4365 118.066 25.3058 117.026H22.4632C22.5994 119.762 23.1638 120.605 26.9502 120.551C29.9305 120.691 31.7667 120.081 31.5568 117.4C31.9377 114.062 29.2966 114.143 26.8001 113.309C25.2947 112.959 25.7687 111.544 27.1893 111.592L27.1907 111.591Z" fill="var(--fill-0, #141414)"/>
<path id="Vector_4" d="M22.8283 133.511H26.3882V129.047H30.1427V127.061H26.3882V125.045H31.2046V123.059H22.8283V133.511Z" fill="var(--fill-0, #141414)"/>
<path id="Vector_5" d="M48.5052 132.282L49.1279 129.401L48.6859 129.196C47.6823 130.509 46.9039 131.631 46.163 132.901C45.6278 133.82 45.96 134.539 46.8761 135.109C43.9431 134.976 43.123 138.147 41.7899 140.178C41.8038 139.072 41.9206 137.374 41.3674 136.466C40.0427 136.32 39.2142 136.508 38.212 136.59C38.2203 136.486 40.9281 134.765 41.2159 133.825C41.1505 131.856 40.9392 130.339 40.7738 128.637C40.9712 128.739 43.6568 131.84 43.8917 131.759C52.3806 124.56 51.9302 115.23 51.9302 115.23C51.9302 115.23 52.3806 105.902 43.8917 98.7011C43.6582 98.6192 40.9712 101.721 40.7738 101.823C40.9392 100.122 41.1505 98.6039 41.2159 96.6348C40.9393 95.7092 38.2023 93.9537 38.212 93.8705C39.2142 93.9523 40.0427 94.1397 41.3674 93.994C41.9192 93.0864 41.8038 91.3879 41.7899 90.2818C43.123 92.3135 43.9431 95.4844 46.8761 95.3511C45.96 95.9215 45.6264 96.6403 46.163 97.559C46.9025 98.8287 47.6809 99.9514 48.6859 101.264L49.1279 101.059C47.4557 95.4552 49.5561 96.2629 54 94.42L53.9444 93.9357C51.4562 93.5874 48.4121 93.5457 46.0754 92.7631C43.4079 89.3729 41.3298 85.3485 38.5109 82L38.0744 82.2123C38.5818 84.237 39.7271 90.1417 39.1447 90.9702C38.3079 92.2205 34.894 90.7162 33.6874 90.3401C28.3747 88.5333 25.6336 88.5306 20.3126 90.3401C19.081 90.7218 15.7129 92.2205 14.8553 90.9715C14.2729 90.1431 15.4196 84.2384 15.9256 82.2137L15.4891 82.0014C12.6701 85.3499 10.5921 89.3743 7.92458 92.7645C5.58793 93.5457 2.54376 93.5888 0.0556013 93.9371L0 94.4214C4.44533 96.2573 6.54566 95.4733 4.87207 101.06L5.3141 101.266C6.3177 99.9528 7.09612 98.8301 7.83701 97.5604C8.37217 96.6417 8.03995 95.9229 7.12392 95.3525C10.0569 95.4858 10.877 92.3148 12.21 90.2832C12.1961 91.3892 12.0794 93.0878 12.6326 93.9954C13.9573 94.1411 14.7858 93.9537 15.788 93.8719C15.7797 93.9759 13.0719 95.6967 12.7841 96.6362C12.8495 98.6053 13.0607 100.122 13.2262 101.825C13.0288 101.722 10.3432 98.622 10.1083 98.7025C-0.795099 109.207 -0.82012 121.231 10.1083 131.76C10.3418 131.842 13.0288 128.741 13.2262 128.638C13.0607 130.339 12.8495 131.858 12.7841 133.827C13.0607 134.752 15.7977 136.508 15.788 136.591C14.7858 136.509 13.9573 136.322 12.6326 136.468C12.0808 137.375 12.1961 139.074 12.21 140.18C10.877 138.148 10.0569 134.977 7.12392 135.11C8.03995 134.54 8.37356 133.821 7.83701 132.903C7.09751 131.633 6.31909 130.51 5.3141 129.197L4.87207 129.403C6.54427 135.006 4.44394 134.199 0 136.042L0.0556013 136.526C2.54376 136.874 5.58793 136.916 7.92458 137.698C10.5921 141.089 12.6701 145.113 15.4891 148.462L15.9256 148.249C15.4182 146.225 14.2729 140.32 14.8553 139.491C15.6921 138.241 19.106 139.745 20.3126 140.121C25.6253 141.928 28.3664 141.931 33.6874 140.121C34.919 139.74 38.2871 138.241 39.1447 139.49C39.7271 140.318 38.5804 146.223 38.0744 148.248L38.5109 148.46C41.3298 145.112 43.4079 141.087 46.0754 137.697C48.4121 136.916 51.4562 136.873 53.9444 136.524L54 136.04C52.4279 135.263 48.052 134.702 48.5052 132.282ZM38.7347 132.74C31.5913 141.504 22.4046 141.492 15.2709 132.74C15.1541 129.679 15.9006 125.628 16.761 121.831L16.3384 121.62C15.2626 122.993 11.7694 126.895 9.99712 127.83C2.75782 121.41 2.81621 108.988 9.99712 102.63C11.7694 103.565 15.264 107.466 16.3384 108.84L16.761 108.629C15.8992 104.832 15.1527 100.781 15.2709 97.72C22.4129 88.9566 31.601 88.9663 38.7347 97.72C38.8514 100.781 38.105 104.832 37.2445 108.629L37.6671 108.84C38.743 107.467 42.2362 103.565 44.0084 102.63C51.2477 109.051 51.1894 121.472 44.0084 127.83C42.2362 126.895 38.7416 122.994 37.6671 121.62L37.2445 121.831C38.1064 125.628 38.8514 129.679 38.7347 132.74Z" fill="var(--fill-0, #141414)"/>
</g>
</g>
</svg>
