<svg preserveAspectRatio="none" width="100%" height="100%" overflow="visible" style="display: block;" viewBox="0 0 154 80" fill="none" xmlns="http://www.w3.org/2000/svg">
<g id="Frame 291">
<path id="Vector" d="M0.00733968 79.4809C4.64699 65.6994 14.8264 50.3524 28.0313 42.2822C28.6243 42.0754 35.4298 49.9258 35.9302 50.186C35.5105 45.8783 34.9761 42.0358 34.8084 37.0516C34.7983 36.7749 34.9174 36.5065 35.0888 36.2895C36.5883 34.3959 42.4204 30.0515 42.4204 30.0515C39.8816 30.2601 37.7808 30.7336 34.4262 30.3631C33.0275 28.0659 33.3217 23.7647 33.3565 20.9646C31.5115 24.0754 29.3255 28.2598 27.221 31.0967C26.5254 32.0334 25.5511 32.7256 24.4365 33.0721C23.1863 33.4619 21.7006 33.6825 20.4651 33.7974C22.7867 35.2425 23.6309 37.0617 22.2734 39.3875C20.3981 42.603 18.4257 45.4454 15.8822 48.7676L14.764 48.2473L16.3433 40.9539C17.4899 34.8288 6.40404 33.4086 2.41973 31.4395L2.55813 30.2142C8.86226 29.3344 16.5752 29.226 22.4971 27.2468C29.2558 18.6646 34.5224 8.4774 41.6652 0L42.7696 0.538687C41.4865 5.66539 38.581 20.6134 40.0575 22.7103C40.1831 23.0155 40.5708 23.9393 42.8283 23.9393C50.6017 23.3492 57.1111 19.3651 64.4079 17.1341L65 18.2261C57.0259 25.0057 47.9226 31.8826 41.1024 39.7947C40.8064 47.5449 42.6972 57.8011 44.8796 67.411L43.8081 67.9442C41.0823 64.4685 32.231 54.5911 27.7389 52.224C13.4222 60.0772 0.289633 80.4626 1.14479 79.992L0 79.4735L0.0045873 79.4781V79.48L0.00733968 79.4809Z" fill="var(--fill-0, #141414)"/>
<g id="Group 202">
<path id="Vector_2" d="M118.679 17.9951L115.6 30.5765H119.038L119.416 29.1032H122.836L123.196 30.5765H127.428L124.349 17.9951H118.677H118.679ZM119.957 26.6043L121.091 22.0391H121.163L122.298 26.6043H119.957Z" fill="var(--fill-0, #141414)"/>
<path id="Vector_3" d="M121.73 35.6185C123.03 35.5884 123.568 36.4938 123.711 37.6681H127.005C127.044 34.1719 125.416 33.4353 121.117 33.6057C116.593 33.5589 115.949 34.9203 116.076 37.8835C115.74 41.0356 119.595 41.5033 121.982 42.1798C123.763 42.5038 123.195 44.4281 121.604 44.3546C120.194 44.3897 119.618 43.4125 119.461 42.1614H116.039C116.203 45.4537 116.882 46.4693 121.44 46.4042C125.027 46.5729 127.238 45.8379 126.985 42.6107C127.444 38.5934 124.264 38.6903 121.259 37.6864C119.447 37.2655 120.018 35.5617 121.728 35.6202L121.73 35.6185Z" fill="var(--fill-0, #141414)"/>
<path id="Vector_4" d="M116.478 62.0042H120.763V56.6306H125.283V54.2403H120.763V51.8132H126.561V49.4229H116.478V62.0042Z" fill="var(--fill-0, #141414)"/>
<path id="Vector_5" d="M147.386 60.5249L148.135 57.0572L147.603 56.81C146.395 58.3902 145.458 59.7415 144.567 61.2699C143.922 62.3757 144.322 63.241 145.425 63.9275C141.894 63.7671 140.907 67.584 139.303 70.0294C139.319 68.6981 139.46 66.6536 138.794 65.5611C137.2 65.3858 136.202 65.6113 134.996 65.7098C135.006 65.5845 138.265 63.5132 138.612 62.3824C138.533 60.0121 138.279 58.1864 138.08 56.1368C138.317 56.2604 141.55 59.9921 141.833 59.8952C152.051 51.2292 151.509 39.9992 151.509 39.9992C151.509 39.9992 152.051 28.7708 141.833 20.1031C141.551 20.0046 138.317 23.7379 138.08 23.8615C138.279 21.8136 138.533 19.9862 138.612 17.6159C138.279 16.5018 134.984 14.3887 134.996 14.2885C136.202 14.3871 137.2 14.6126 138.794 14.4372C139.458 13.3447 139.319 11.3002 139.303 9.96889C140.907 12.4143 141.894 16.2312 145.425 16.0708C144.322 16.7574 143.921 17.6226 144.567 18.7284C145.457 20.2568 146.394 21.6082 147.603 23.1884L148.135 22.9411C146.123 16.1961 148.651 17.1683 154 14.95L153.933 14.367C150.938 13.9478 147.274 13.8976 144.461 12.9555C141.25 8.87478 138.749 4.03065 135.356 0L134.83 0.25557C135.441 2.69267 136.82 9.80018 136.119 10.7974C135.111 12.3024 131.002 10.4917 129.55 10.039C123.155 7.8642 119.855 7.86086 113.45 10.039C111.968 10.4984 107.914 12.3024 106.881 10.7991C106.18 9.80185 107.561 2.69434 108.17 0.25724L107.644 0.00167039C104.251 4.03232 101.75 8.87645 98.5388 12.9572C95.7262 13.8976 92.0619 13.9494 89.0669 14.3687L89 14.9517C94.3509 17.1616 96.879 16.2178 94.8645 22.9428L95.3966 23.19C96.6046 21.6098 97.5416 20.2585 98.4334 18.7301C99.0776 17.6243 98.6777 16.759 97.5751 16.0725C101.106 16.2329 102.093 12.416 103.697 9.97056C103.681 11.3019 103.54 13.3464 104.206 14.4389C105.8 14.6142 106.798 14.3887 108.004 14.2902C107.994 14.4155 104.735 16.4868 104.388 17.6176C104.467 19.9879 104.721 21.8136 104.92 23.8632C104.683 23.7396 101.45 20.0079 101.167 20.1048C88.0429 32.7497 88.0128 47.2219 101.167 59.8969C101.449 59.9954 104.683 56.2621 104.92 56.1385C104.721 58.1864 104.467 60.0138 104.388 62.3841C104.721 63.4982 108.016 65.6113 108.004 65.7115C106.798 65.6129 105.8 65.3874 104.206 65.5628C103.542 66.6553 103.681 68.6998 103.697 70.0311C102.093 67.5857 101.106 63.7688 97.5751 63.9292C98.6777 63.2426 99.0793 62.3774 98.4334 61.2716C97.5433 59.7432 96.6063 58.3918 95.3966 56.8116L94.8645 57.0589C96.8774 63.8039 94.3492 62.8317 89 65.05L89.0669 65.633C92.0619 66.0522 95.7262 66.1024 98.5388 67.0445C101.75 71.1252 104.251 75.9693 107.644 80L108.17 79.7444C107.559 77.3073 106.18 70.1998 106.881 69.2026C107.889 67.6976 111.998 69.5083 113.45 69.961C119.845 72.1358 123.145 72.1391 129.55 69.961C131.032 69.5016 135.086 67.6976 136.119 69.2009C136.82 70.1981 135.439 77.3057 134.83 79.7428L135.356 79.9983C138.749 75.9677 141.25 71.1235 144.461 67.0428C147.274 66.1023 150.938 66.0506 153.933 65.6313L154 65.0483C152.108 64.1129 146.84 63.4381 147.386 60.5249ZM135.625 61.0762C127.027 71.6247 115.968 71.6113 107.382 61.0762C107.241 57.3913 108.14 52.5154 109.175 47.9452L108.667 47.6913C107.372 49.3433 103.167 54.0405 101.034 55.1663C92.3196 47.4374 92.3899 32.4857 101.034 24.832C103.167 25.9579 107.373 30.6533 108.667 32.307L109.175 32.0531C108.138 27.4829 107.239 22.6071 107.382 18.9222C115.978 8.37367 127.038 8.38536 135.625 18.9222C135.766 22.6071 134.867 27.4829 133.831 32.0531L134.34 32.307C135.635 30.655 139.84 25.9579 141.973 24.832C150.687 32.5609 150.617 47.5126 141.973 55.1663C139.84 54.0405 135.633 49.345 134.34 47.6913L133.831 47.9452C134.869 52.5154 135.766 57.3913 135.625 61.0762Z" fill="var(--fill-0, #141414)"/>
</g>
</g>
</svg>
