<svg preserveAspectRatio="none" width="100%" height="100%" overflow="visible" style="display: block;" viewBox="0 0 260.69 100" fill="none" xmlns="http://www.w3.org/2000/svg">
<g id="Group 218">
<path id="Vector" d="M16.2328 25.8337L12.2396 29.7903V70.1235L16.2328 74.0801H30.6904L34.6726 70.1235V43.4904H22.2282V50.768H27.3277V66.7916H19.5956V33.1112H27.3277V38.5474H34.6726V29.7903L30.6793 25.8337H16.2218H16.2328ZM69.2955 25.8337L65.3023 29.7903V74.0801H72.6472V50.7789H80.3793V74.0801H87.7242V29.7794L83.731 25.8228H69.2734L69.2955 25.8337ZM80.3903 43.4904H72.6472V33.1112H80.3903V43.4904ZM91.8391 74.0691H99.1841V25.8337H91.8391V74.0801V74.0691ZM116.861 66.7916H110.5V25.8337H103.155V70.1235L107.148 74.0801H124.217V51.9188H116.872V66.8026L116.861 66.7916ZM135.035 25.8337V74.0801H142.38V50.7789H153.475L157.468 46.8223V29.7903L153.475 25.8337H135.035ZM150.112 43.4904H142.369V33.1112H150.112V43.4904ZM165.554 25.8337L161.561 29.7903V70.1235L165.554 74.0801H180.011L183.994 70.1235V29.7794L180.011 25.8228H165.554V25.8337ZM176.649 66.7916H168.906V33.1112H176.649V66.7916ZM188.098 74.0691H195.442V25.8337H188.098V74.0801V74.0691ZM199.535 25.8337V74.0801H206.88V33.1112H214.623V74.0691H221.968V29.7794L217.975 25.8228H199.535V25.8337ZM226.072 25.8337V33.1112H233.616V74.0691H240.961V33.1112H248.505V25.8337H226.072ZM38.7765 25.8337V74.0801H46.1214V50.7789H48.1014L53.3446 74.0801H60.8776L55.4463 50.7789H57.2162L61.2095 46.8223V29.7903L57.2162 25.8337H38.7765ZM53.8535 43.4904H46.1214V33.1112H53.8535V43.4904Z" fill="var(--fill-0, #141414)"/>
<path id="Vector_2" d="M152.717 0V14.1714H0V85.8286V86.6068L107.973 100V85.8286H260.69V13.3933L152.717 0ZM105.229 96.9093L15.8624 85.8286H105.229V96.9093ZM257.935 83.0995H2.75435V16.9005H257.935V83.1105V83.0995ZM155.471 14.1714V3.09075L244.838 14.1714H155.471Z" fill="var(--fill-0, #141414)"/>
</g>
</svg>
