<svg preserveAspectRatio="none" width="100%" height="100%" overflow="visible" style="display: block;" viewBox="0 0 176.998 120" fill="none" xmlns="http://www.w3.org/2000/svg">
<g id="Group 217">
<path id="Vector" d="M15.4024 0C15.2159 2.51865 15.0292 5.03699 14.8427 7.53497C13.7646 9.78528 12.438 12.7579 11.0285 16.2673C10.0541 18.6826 7.62871 24.8966 5.26555 33.2779C3.81451 38.4595 2.34272 44.6732 1.16114 51.7748C2.40497 53.8184 4.10472 56.2338 6.40593 58.6904C9.28726 61.7871 12.1896 63.9754 14.5528 65.503C14.5943 67.423 14.6358 69.3634 14.6566 71.2834C13.0603 73.4717 11.4643 75.6597 9.86798 77.8687C9.53627 74.6277 9.22531 71.407 8.8936 68.166H0C0.0622528 71.2007 0.248706 74.3593 0.621918 77.6417C2.57067 94.7759 8.56159 108.773 14.4695 119.053C13.9306 114.842 13.6196 108.38 15.3816 100.845C17.6618 91.1013 22.2847 84.2683 25.1871 80.5937C24.6689 77.848 24.2334 74.607 24.1092 70.953C23.9847 67.1957 24.213 63.8514 24.5651 61.0234C19.88 56.4198 15.1952 51.8368 10.4893 47.2334C10.9455 43.4555 11.7954 39.0378 13.2879 34.2485C14.2415 31.1725 15.3194 28.4062 16.4183 25.9702C17.9731 26.5895 19.5278 27.2089 21.0826 27.8489C20.7924 29.1082 20.523 30.3882 20.2328 31.6475C23.1144 32.4732 25.9957 33.3195 28.8978 34.1455C30.2869 29.5005 31.6757 24.8352 33.0645 20.1902C32.2769 17.2589 31.5097 14.3272 30.7221 11.3959C25.6018 7.61763 20.5019 3.79833 15.4024 0Z" fill="var(--fill-0, #141414)"/>
<path id="Vector_2" d="M53.6914 48.7549C54.3755 43.3256 55.4949 36.2036 57.4229 27.9253C56.6972 25.4893 55.9926 23.074 55.2669 20.6586C50.4991 19.1103 45.7105 17.562 40.9424 16.0137C39.1596 17.9337 37.3561 19.874 35.5734 21.794C34.3918 25.4066 32.92 30.3406 31.5724 36.2653C29.9554 43.3462 28.3386 50.4682 28.0692 59.7992C27.862 67.0865 28.5254 73.2384 29.5825 82.7757C29.9557 86.1407 30.3081 88.907 30.5776 90.8474C33.5004 93.3247 36.4028 95.8227 39.3256 98.341C42.0828 100.715 44.8191 103.089 47.5555 105.484C47.8042 103.708 48.2397 101.561 49.131 99.208C50.7066 95.038 52.966 92.024 54.6453 90.1454C53.5879 85.2114 52.4893 78.3578 52.2821 70.1001C52.0542 61.8015 52.8418 55.5669 53.6917 48.7546M44.7361 81.2277C43.2228 83.643 41.7303 86.079 40.217 88.4943C38.2267 79.8857 37.6051 72.4128 37.5014 66.7358C37.3149 57.3635 38.4135 50.2002 39.0562 46.0712C39.9683 40.2909 41.1499 35.4396 42.1865 31.7649C43.8863 32.0539 45.5863 32.3429 47.286 32.6319C44.8814 40.2702 43.2436 51.1289 43.1401 59.0562C43.0571 65.6001 43.7205 76.2731 44.7364 81.2277" fill="var(--fill-0, #141414)"/>
<path id="Vector_3" d="M69.7543 23.4316C70.48 24.5876 71.1846 25.7643 71.9103 26.9206C71.4751 30.9873 70.9566 36.5199 70.48 43.1052C70.0448 49.1745 69.4641 57.4938 69.4021 66.9281C69.3606 74.7934 69.6716 85.4664 71.1849 98.2447C71.0396 100.722 70.8947 103.199 70.7494 105.656C73.8798 101.63 77.0098 97.6257 80.1401 93.6C79.6635 92.671 79.1865 91.742 78.7098 90.813C78.6476 82.2251 78.5646 73.6374 78.5026 65.0701C80.5963 65.0082 82.7108 64.9255 84.8045 64.8638C84.8668 72.9561 84.9495 81.0281 85.0117 89.1204C88.453 85.8794 91.894 82.6587 95.3353 79.4177C94.8586 78.6744 94.3817 77.9521 93.905 77.2088C94.3817 67.5475 94.5892 57.3288 94.4024 46.6146C94.2782 39.2239 93.988 32.0813 93.5526 25.207C90.6297 25.1863 87.7273 25.1656 84.8045 25.145C84.846 34.8063 84.9083 44.4469 84.9495 54.1082H78.9378C79.228 44.3436 79.5182 34.5586 79.7877 24.794C76.4501 24.34 73.1126 23.8857 69.7543 23.4316Z" fill="var(--fill-0, #141414)"/>
<path id="Vector_4" d="M120.79 39.111C119.981 34.3217 119.152 30.2754 118.468 27.1788C116.955 25.5478 115.421 23.9171 113.908 22.2861C109.14 23.0705 104.372 23.8345 99.6038 24.5981C98.6086 26.4561 97.5931 28.3141 96.5979 30.1721C96.8051 38.2027 96.9711 46.357 97.0331 54.635C97.0953 61.7366 97.0953 68.7553 97.0331 75.6709C100.329 78.9533 103.646 82.2562 106.942 85.5386C107.087 79.0976 107.232 72.6569 107.377 66.2366C109.181 66.2573 111.005 66.2986 112.809 66.3193C113.099 70.2003 113.12 74.7833 112.456 79.8822C112.166 82.1119 111.772 84.2176 111.337 86.1372C115.068 82.9993 118.8 79.8409 122.531 76.7029C123.091 71.955 123.278 67.8056 123.298 64.42C123.361 54.676 122.096 47.0174 120.79 39.1107M112.56 54.2843C110.736 54.2636 108.891 54.2637 107.066 54.243C107.046 51.7037 106.942 49.0613 106.776 46.3364C106.569 43.116 106.3 40.04 105.947 37.1291C107.564 36.8607 109.16 36.5717 110.777 36.3034C111.378 38.8427 111.897 41.7534 112.228 44.9737C112.581 48.4007 112.643 51.5384 112.56 54.284" fill="var(--fill-0, #141414)"/>
<path id="Vector_5" d="M150.607 65.1049C150.462 61.1826 150.006 57.6733 149.425 54.7003C147.207 53.2553 145.01 51.8103 142.792 50.365C144.575 48.3627 146.378 46.36 148.161 44.3577C147.974 42.3967 147.705 40.3114 147.269 38.1234C145.943 31.2077 143.662 25.3861 141.382 20.8238C139.786 18.9245 138.19 17.0048 136.593 15.1055C131.535 16.9428 126.477 18.7801 121.44 20.5968C121.046 22.7644 120.652 24.9527 120.258 27.1204C121.771 32.2814 122.725 36.7817 123.347 40.3117C124.052 44.2547 125.337 52.6773 125.254 63.5566C125.213 68.7589 124.881 73.1766 124.508 76.4589C125.814 77.4292 127.327 78.6885 128.861 80.3399C130.748 82.4042 132.074 84.4069 132.986 86.0582C133.712 82.2392 134.313 77.8832 134.603 73.0939C134.956 67.1073 134.769 61.7193 134.313 57.1156C136.448 58.664 138.584 60.1916 140.719 61.7399C140.885 64.6096 140.905 67.8092 140.636 71.2772C140.2 77.2019 139.123 82.3422 137.92 86.5332C141.9 83.5812 145.881 80.6289 149.84 77.6562C150.4 74.1469 150.773 69.9149 150.607 65.1046M133.111 44.9977L130.955 34.0151L135.702 32.3224L137.526 39.362L133.111 44.9977Z" fill="var(--fill-0, #141414)"/>
<path id="Vector_6" d="M176.838 59.6786C176.341 51.7306 174.786 45.5376 173.583 40.707C171.158 30.9837 168.09 23.4901 166.162 18.7624C164.317 14.3035 162.576 10.6081 161.228 7.86249C160.793 5.69484 160.378 3.50652 159.943 1.33887C155.154 4.66252 150.345 7.98617 145.556 11.2892C145.556 12.4452 145.431 14.1175 144.81 15.9961C144.312 17.4825 143.669 18.6591 143.11 19.5055C144.665 22.8704 146.572 27.4741 148.251 33.0891C149.308 36.6191 151.796 45.723 152.376 57.841C152.645 63.6006 152.542 71.0943 151.153 79.7649C152.915 82.1595 155.133 85.5038 157.165 89.7978C158.595 92.7911 160.813 97.5391 161.891 104.125C162.886 110.215 162.555 115.644 161.829 120C168.836 106.974 172.297 95.3305 174.122 87.0938C175.677 80.1988 177.563 71.3425 176.838 59.6786M167.199 78.5675C166.639 77.2669 165.81 75.6775 164.545 74.0052C163.592 72.7459 162.617 71.7549 161.767 70.9706C162.306 66.1606 162.534 60.3596 161.974 53.857C161.021 43.019 158.16 34.204 155.548 27.9491C157.082 27.3917 158.595 26.8551 160.129 26.2977C161.436 29.4357 162.949 33.4817 164.317 38.333C166.618 46.508 167.364 53.0313 167.634 55.6533C168.173 61.3922 168.442 69.2782 167.198 78.5678" fill="var(--fill-0, #141414)"/>
</g>
</svg>
