<svg preserveAspectRatio="none" width="100%" height="100%" overflow="visible" style="display: block;" viewBox="0 0 24 24" fill="none" xmlns="http://www.w3.org/2000/svg">
<g id="Layer_1" clip-path="url(#clip0_0_88)">
<path id="Vector" d="M7.03005 0.0829339C5.75325 0.143174 4.88109 0.347654 4.11909 0.646214C3.33021 0.953654 2.66157 1.36597 1.99629 2.03389C1.33029 2.70229 0.921325 3.37213 0.616045 4.16173C0.320605 4.92565 0.120205 5.79829 0.0640451 7.07581C0.00788513 8.35597 -0.00483487 8.76421 0.00140513 12.0229C0.00764513 15.2812 0.0220451 15.6901 0.0830051 16.9705C0.143965 18.2471 0.347725 19.1188 0.646285 19.8813C0.954205 20.6701 1.36605 21.3385 2.03421 22.0041C2.70213 22.6696 3.37245 23.0783 4.16253 23.3838C4.92573 23.679 5.79861 23.8799 7.07589 23.9358C8.35581 23.9922 8.76453 24.0047 12.0223 23.9985C15.2815 23.9922 15.6902 23.9778 16.9701 23.9171C18.2469 23.8561 19.1181 23.6517 19.8811 23.3538C20.67 23.0452 21.3386 22.6341 22.0039 21.9659C22.6692 21.298 23.0781 20.6277 23.3834 19.8376C23.6788 19.0744 23.88 18.2015 23.9354 16.9249C23.9913 15.6443 24.0045 15.2351 23.9983 11.9771C23.992 8.71861 23.9774 8.31037 23.9167 7.03069C23.856 5.75317 23.6515 4.88173 23.3534 4.11901C23.045 3.33013 22.6336 2.66221 21.9657 1.99621C21.2978 1.33093 20.6275 0.921254 19.8374 0.616694C19.0737 0.321254 18.2013 0.119894 16.924 0.0646939C15.6444 0.00757391 15.2359 -0.0049061 11.9769 0.0013339C8.71869 0.00757391 8.31021 0.0214939 7.03029 0.0829339M7.17021 21.7761C6.00021 21.7252 5.36492 21.5308 4.94156 21.3678C4.38092 21.1509 3.98085 20.8907 3.55965 20.4729C3.13941 20.0533 2.87853 19.6545 2.65965 19.095C2.49525 18.6717 2.29725 18.0371 2.24253 16.8671C2.18301 15.6023 2.16933 15.2229 2.16357 12.0186C2.15733 8.81533 2.16909 8.43565 2.22429 7.16989C2.27445 6.00085 2.47005 5.36461 2.63253 4.94173C2.84949 4.38037 3.10868 3.98101 3.52748 3.55981C3.947 3.13885 4.34589 2.87869 4.90581 2.65981C5.32893 2.49445 5.96325 2.29813 7.13277 2.24269C8.39829 2.18269 8.77749 2.16997 11.9808 2.16373C15.1848 2.15749 15.5644 2.16877 16.8302 2.22445C17.9992 2.27533 18.6355 2.46901 19.0581 2.63269C19.6192 2.84965 20.0193 3.10813 20.44 3.52765C20.8608 3.94717 21.1216 4.34533 21.3405 4.90645C21.5056 5.32837 21.7022 5.96365 21.7574 7.13269C21.8176 8.39821 21.8313 8.77765 21.8371 11.9812C21.8433 15.1854 21.8316 15.5649 21.7761 16.8299C21.7252 17.9999 21.5311 18.6354 21.3679 19.0593C21.1509 19.6194 20.8915 20.0195 20.4724 20.4407C20.0534 20.8602 19.6545 21.1218 19.0941 21.3407C18.672 21.5056 18.0367 21.7024 16.8679 21.7578C15.6024 21.8173 15.2232 21.831 12.0187 21.8368C8.81541 21.843 8.43621 21.831 7.17045 21.7761M16.9526 5.58541C16.954 6.38005 17.6004 7.02349 18.395 7.02205C19.1901 7.02061 19.8336 6.37477 19.8324 5.57989C19.8307 4.78525 19.1846 4.14133 18.3895 4.14277C17.5944 4.14421 16.9509 4.79053 16.9524 5.58517M5.83845 12.0117C5.84493 15.4149 8.60901 18.1677 12.0115 18.1609C15.4142 18.1542 18.1684 15.3911 18.162 11.9879C18.1552 8.58589 15.3909 5.83165 11.9877 5.83813C8.58525 5.84485 5.83173 8.60917 5.83845 12.0117ZM7.99989 12.0073C7.99605 9.79861 9.78381 8.00413 11.992 8.00029C14.2008 7.99597 15.9955 9.78301 15.9998 11.9922C16.0041 14.2014 14.2164 15.9954 12.0072 15.9997C9.79869 16.0041 8.00397 14.2168 7.99989 12.0076" fill="var(--fill-0, #141414)"/>
</g>
<defs>
<clipPath id="clip0_0_88">
<rect width="24" height="24" fill="white"/>
</clipPath>
</defs>
</svg>
