<svg preserveAspectRatio="none" width="100%" height="100%" overflow="visible" style="display: block;" viewBox="0 0 24 24" fill="none" xmlns="http://www.w3.org/2000/svg">
<g id="Layer_1" clip-path="url(#clip0_0_62)">
<path id="Vector" d="M12.476 0.00987113C5.85358 -0.253359 0.272004 4.90156 0.00987113 11.524C-0.253359 18.1464 4.90266 23.7269 11.524 23.9901C18.1464 24.2534 23.7269 19.0984 23.9901 12.476C24.2523 5.85358 19.0973 0.272004 12.476 0.00987113ZM17.541 17.5893C17.3918 17.8525 17.1012 17.9841 16.8182 17.9446C16.7316 17.9325 16.6449 17.904 16.5638 17.858C14.9778 16.9553 13.2492 16.3674 11.4264 16.1108C9.60351 15.8541 7.77954 15.943 6.00603 16.374C5.62106 16.4672 5.23389 16.2314 5.14066 15.8464C5.04744 15.4615 5.28325 15.0743 5.66822 14.9811C7.61832 14.5073 9.62325 14.4097 11.626 14.6915C13.6287 14.9734 15.5284 15.6194 17.2734 16.612C17.6167 16.8083 17.7373 17.2449 17.5421 17.5893H17.541ZM19.1182 14.4393C18.8736 14.8911 18.3076 15.06 17.8558 14.8155C16 13.8119 13.9907 13.1527 11.8837 12.8566C9.7768 12.5605 7.66438 12.6405 5.60351 13.0935C5.49164 13.1176 5.38086 13.122 5.27338 13.1067C4.89937 13.054 4.57911 12.7754 4.49356 12.3839C4.38278 11.8815 4.70085 11.3847 5.20318 11.2739C7.48122 10.7727 9.81629 10.6838 12.1437 11.0107C14.47 11.3375 16.691 12.0658 18.742 13.1758C19.195 13.4203 19.3628 13.9852 19.1182 14.4382V14.4393ZM20.8665 10.8879C20.6361 11.331 20.1568 11.5602 19.6896 11.4944C19.5635 11.4768 19.4395 11.4373 19.32 11.3759C17.1593 10.2517 14.8319 9.50918 12.4025 9.16808C9.97313 8.82698 7.53057 8.89937 5.14395 9.38415C4.52317 9.51028 3.91884 9.10886 3.79271 8.48917C3.66658 7.86838 4.068 7.26405 4.68769 7.13792C7.33096 6.60159 10.0335 6.52152 12.7217 6.89882C15.4099 7.27612 17.9852 8.09871 20.3784 9.34357C20.94 9.63532 21.1582 10.3274 20.8665 10.8889V10.8879Z" fill="var(--fill-0, #141414)"/>
</g>
<defs>
<clipPath id="clip0_0_62">
<rect width="24" height="24" fill="white"/>
</clipPath>
</defs>
</svg>
