<svg preserveAspectRatio="none" width="100%" height="100%" overflow="visible" style="display: block;" viewBox="0 0 21 24" fill="none" xmlns="http://www.w3.org/2000/svg">
<g id="Layer_1" clip-path="url(#clip0_0_15)">
<path id="Vector" fill-rule="evenodd" clip-rule="evenodd" d="M12.293 17.5883C12.2268 19.4376 10.6919 20.9224 8.82609 20.9224C8.40265 20.9224 7.99244 20.8414 7.6087 20.7064C7.99244 20.8549 8.40265 20.9224 8.82609 20.9224C10.7051 20.9224 12.2268 19.4376 12.293 17.5883V1.05287H15.3365C15.6276 2.61867 16.5671 3.9685 17.8639 4.8189C18.7637 5.39932 19.8488 5.75028 21 5.75028V6.66817V9.88076C18.8563 9.88076 16.8715 9.19235 15.2439 8.0315V16.4139C15.2439 20.5984 11.8299 24.0135 7.62193 24.0135C5.99433 24.0135 4.49906 23.5006 3.2552 22.6367C1.29679 21.2598 0 18.9921 0 16.4139C0 12.2295 3.41399 8.8144 7.62193 8.8144C7.96597 8.8144 8.31002 8.84139 8.65406 8.88189V9.85377C4.81664 9.94826 1.68053 12.8639 1.25709 16.6029C1.68053 12.8774 4.81664 9.94826 8.65406 9.85377V13.0934C8.32325 12.9854 7.97921 12.9314 7.62193 12.9314C5.70321 12.9314 4.14178 14.4837 4.14178 16.4004C4.14178 17.7368 4.89603 18.8841 6.00756 19.4646C6.48393 19.721 7.0397 19.8695 7.62193 19.8695C9.50095 19.8695 11.0227 18.3847 11.0888 16.5354V0H15.2306C15.2306 0.350956 15.2703 0.701912 15.3233 1.05287H12.293V17.5883Z" fill="var(--fill-0, #141414)"/>
</g>
<defs>
<clipPath id="clip0_0_15">
<rect width="21" height="24" fill="white"/>
</clipPath>
</defs>
</svg>
