<svg preserveAspectRatio="none" width="100%" height="100%" overflow="visible" style="display: block;" viewBox="0 0 59.0001 39.9999" fill="none" xmlns="http://www.w3.org/2000/svg">
<g id="Group 217">
<path id="Vector" d="M5.13409 0C5.07194 0.839546 5.00969 1.67899 4.94754 2.51165C4.58816 3.26175 4.14599 4.25263 3.67615 5.42241C3.35136 6.22751 2.54289 8.29882 1.75517 11.0926C1.2715 12.8198 0.780901 14.891 0.387043 17.2582C0.801652 17.9394 1.36823 18.7445 2.1353 19.5634C3.09573 20.5956 4.06319 21.3251 4.85091 21.8343C4.86474 22.4743 4.87857 23.121 4.88549 23.761C4.3534 24.4905 3.8214 25.2198 3.28931 25.9561C3.17874 24.8758 3.07509 23.8023 2.96452 22.7219H0C0.0207508 23.7335 0.0829015 24.7864 0.207305 25.8805C0.856886 31.5919 2.85385 36.2574 4.82314 39.6842C4.6435 38.2805 4.53985 36.1266 5.12718 33.615C5.88723 30.367 7.42818 28.0893 8.39563 26.8645C8.22291 25.9492 8.07776 24.8689 8.03636 23.6509C7.99486 22.3985 8.07094 21.2837 8.18833 20.3411C6.62663 18.8065 5.06503 17.2789 3.49641 15.7444C3.64848 14.4851 3.93177 13.0126 4.42928 11.4161C4.74715 10.3908 5.10643 9.4687 5.47272 8.6567C5.99098 8.86315 6.50924 9.06959 7.0275 9.28292C6.93077 9.70269 6.84095 10.1294 6.74421 10.5491C7.70475 10.8243 8.66519 11.1065 9.63254 11.3818C10.0956 9.83347 10.5585 8.27836 11.0214 6.73004C10.7589 5.75294 10.5032 4.77573 10.2406 3.79862C8.53387 2.5392 6.83393 1.26611 5.13409 0Z" fill="var(--fill-0, #EED410)"/>
<path id="Vector_2" d="M17.8975 16.2516C18.1256 14.4418 18.4987 12.0678 19.1413 9.30841C18.8994 8.49642 18.6646 7.69131 18.4227 6.88621C16.8334 6.3701 15.2372 5.854 13.6479 5.33789C13.0536 5.97788 12.4525 6.62466 11.8582 7.26465C11.4643 8.46887 10.9738 10.1135 10.5246 12.0884C9.98555 14.4487 9.44664 16.8227 9.35682 19.933C9.28775 22.3621 9.50889 24.4127 9.86125 27.5918C9.98565 28.7135 10.1031 29.6356 10.193 30.2824C11.1672 31.1081 12.1347 31.9408 13.109 32.7802C14.028 33.5716 14.9401 34.3629 15.8522 35.1611C15.9351 34.5693 16.0803 33.8537 16.3774 33.0692C16.9026 31.6793 17.6557 30.6746 18.2155 30.0484C17.863 28.4037 17.4968 26.1192 17.4278 23.3667C17.3518 20.6004 17.6143 18.5222 17.8976 16.2515M14.9124 27.0758C14.408 27.8809 13.9105 28.6929 13.4061 29.498C12.7427 26.6285 12.5355 24.1375 12.5009 22.2452C12.4387 19.1211 12.8049 16.7333 13.0191 15.357C13.3232 13.4303 13.717 11.8132 14.0626 10.5883C14.6292 10.6846 15.1958 10.781 15.7624 10.8773C14.9609 13.4234 14.4149 17.0429 14.3804 19.6853C14.3528 21.8667 14.5739 25.4243 14.9125 27.0758" fill="var(--fill-0, #EED410)"/>
<path id="Vector_3" d="M23.2519 7.81055C23.4938 8.19588 23.7286 8.5881 23.9705 8.97353C23.8255 10.3291 23.6526 12.1733 23.4938 14.3684C23.3487 16.3915 23.1551 19.1646 23.1345 22.3093C23.1206 24.9311 23.2243 28.4887 23.7287 32.7481C23.6803 33.5739 23.632 34.3997 23.5836 35.2186C24.627 33.8767 25.6704 32.5418 26.7138 31.1999C26.5549 30.8903 26.3959 30.5806 26.237 30.2709C26.2163 27.4083 26.1886 24.5458 26.168 21.69C26.8659 21.6693 27.5707 21.6418 28.2686 21.6212C28.2893 24.3186 28.3169 27.0093 28.3376 29.7067C29.4847 28.6264 30.6317 27.5528 31.7788 26.4725C31.6199 26.2247 31.4609 25.984 31.3021 25.7362C31.4609 22.5158 31.5301 19.1096 31.4679 15.5382C31.4265 13.0746 31.3297 10.6938 31.1846 8.40232C30.2103 8.39543 29.2428 8.38854 28.2686 8.38166C28.2824 11.6021 28.3032 14.8156 28.3169 18.036H26.313C26.4097 14.7812 26.5065 11.5195 26.5963 8.26466C25.4838 8.11332 24.3713 7.96188 23.2519 7.81055Z" fill="var(--fill-0, #EED410)"/>
<path id="Vector_4" d="M40.2625 13.037C39.9931 11.4406 39.7166 10.0918 39.4887 9.05959C38.9842 8.51593 38.4729 7.97237 37.9685 7.42871C36.3792 7.69016 34.7898 7.94482 33.2006 8.19938C32.8689 8.8187 32.5303 9.43803 32.1986 10.0574C32.2677 12.7342 32.323 15.4523 32.3437 18.2116C32.3644 20.5788 32.3644 22.9184 32.3437 25.2236C33.4423 26.3177 34.5479 27.4187 35.6466 28.5128C35.6949 26.3658 35.7433 24.2189 35.7918 22.0788C36.3929 22.0857 37.001 22.0995 37.6022 22.1064C37.6989 23.4 37.7058 24.9277 37.4847 26.6274C37.3879 27.3706 37.2566 28.0724 37.1116 28.7123C38.3554 27.6664 39.5992 26.6136 40.843 25.5676C41.0295 23.9849 41.0918 22.6018 41.0987 21.4733C41.1194 18.2253 40.6979 15.6724 40.2625 13.0369M37.5193 18.0947C36.9112 18.0878 36.2962 18.0878 35.6881 18.081C35.6812 17.2345 35.6466 16.3538 35.5914 15.4454C35.5223 14.372 35.4325 13.3467 35.315 12.3763C35.854 12.2869 36.386 12.1906 36.925 12.1011C37.1254 12.9476 37.2981 13.9178 37.4087 14.9912C37.5262 16.1335 37.5469 17.1794 37.5193 18.0946" fill="var(--fill-0, #EED410)"/>
<path id="Vector_5" d="M50.2021 21.7016C50.1537 20.3941 50.0017 19.2244 49.8083 18.2334C49.0689 17.7517 48.3365 17.2701 47.5971 16.7883C48.1913 16.1209 48.7925 15.4533 49.3867 14.7859C49.3246 14.1322 49.2348 13.4371 49.0896 12.7078C48.6473 10.4026 47.8873 8.46202 47.1271 6.94125C46.595 6.30815 46.0631 5.66826 45.531 5.03516C43.845 5.6476 42.1588 6.26003 40.4798 6.86559C40.3484 7.58813 40.2172 8.31757 40.0859 9.04012C40.5903 10.7604 40.9082 12.2605 41.1155 13.4372C41.3505 14.7515 41.7788 17.5591 41.7513 21.1855C41.7374 22.9196 41.6269 24.3921 41.5025 25.4862C41.9378 25.8097 42.4422 26.2294 42.9536 26.7799C43.5824 27.468 44.0246 28.1355 44.3286 28.686C44.5705 27.413 44.7709 25.961 44.8676 24.3646C44.9851 22.369 44.923 20.573 44.7709 19.0385C45.4826 19.5546 46.1944 20.0638 46.9061 20.5799C46.9613 21.5365 46.9683 22.603 46.8784 23.759C46.7333 25.7339 46.374 27.4473 45.9732 28.8443C47.3 27.8603 48.6267 26.8762 49.9465 25.8853C50.1331 24.7156 50.2575 23.3049 50.2021 21.7015M44.3701 14.9992L43.6515 11.3383L45.2338 10.7741L45.8419 13.1206L44.3701 14.9992Z" fill="var(--fill-0, #EED410)"/>
<path id="Vector_6" d="M58.9467 19.8928C58.7809 17.2435 58.2626 15.1792 57.8619 13.569C57.0534 10.3279 56.0307 7.83 55.388 6.25413C54.773 4.7678 54.1926 3.53604 53.7434 2.62082C53.5983 1.89827 53.4601 1.16884 53.315 0.446289C51.7188 1.55417 50.1157 2.66205 48.5194 3.76304C48.5194 4.14837 48.4779 4.70581 48.2706 5.33202C48.1048 5.82747 47.8906 6.21969 47.704 6.5018C48.2223 7.62345 48.858 9.158 49.4177 11.0297C49.7702 12.2063 50.5993 15.241 50.7928 19.2803C50.8826 21.2001 50.8481 23.698 50.3851 26.5882C50.9724 27.3864 51.7118 28.5012 52.3889 29.9325C52.8657 30.9303 53.6051 32.5129 53.9645 34.7081C54.2962 36.7381 54.1856 38.5479 53.9437 39.9999C56.2793 35.6578 57.4332 31.7767 58.0414 29.0312C58.5597 26.7329 59.1885 23.7808 58.9466 19.8928M55.7336 26.1891C55.547 25.7555 55.2707 25.2258 54.8491 24.6683C54.5313 24.2486 54.2065 23.9182 53.9232 23.6568C54.1028 22.0535 54.1788 20.1198 53.9922 17.9523C53.6744 14.3396 52.7207 11.4013 51.8501 9.31632C52.3615 9.13054 52.8659 8.95166 53.3772 8.76588C53.8126 9.81187 54.317 11.1605 54.773 12.7776C55.54 15.5026 55.7888 17.677 55.8786 18.551C56.0583 20.464 56.1481 23.0927 55.7335 26.1892" fill="var(--fill-0, #EED410)"/>
</g>
</svg>
