<svg preserveAspectRatio="none" width="100%" height="100%" overflow="visible" style="display: block;" viewBox="0 0 104.276 40" fill="none" xmlns="http://www.w3.org/2000/svg">
<g id="Group 218">
<path id="Vector" d="M6.4938 10.3335L4.8965 11.9161V28.0494L6.4938 29.632H12.2768L13.8697 28.0494V17.3962H8.89196V20.3072H10.9317V26.7166H7.8389V13.2445H10.9317V15.419H13.8697V11.9161L12.2724 10.3335H6.48938H6.4938ZM27.7189 10.3335L26.1216 11.9161V29.632H29.0595V20.3115H32.1524V29.632H35.0903V11.9117L33.493 10.3291H27.71L27.7189 10.3335ZM32.1568 17.3962H29.0595V13.2445H32.1568V17.3962ZM36.7363 29.6276H39.6743V10.3335H36.7363V29.632V29.6276ZM46.7449 26.7166H44.2007V10.3335H41.2627V28.0494L42.86 29.632H49.6873V20.7675H46.7493V26.721L46.7449 26.7166ZM54.0146 10.3335V29.632H56.9526V20.3115H61.3905L62.9878 18.7289V11.9161L61.3905 10.3335H54.0146ZM60.0454 17.3962H56.9481V13.2445H60.0454V17.3962ZM66.2222 10.3335L64.6249 11.9161V28.0494L66.2222 29.632H72.0053L73.5981 28.0494V11.9117L72.0053 10.3291H66.2222V10.3335ZM70.6602 26.7166H67.5629V13.2445H70.6602V26.7166ZM75.2397 29.6276H78.1776V10.3335H75.2397V29.632V29.6276ZM79.8148 10.3335V29.632H82.7527V13.2445H85.85V29.6276H88.788V11.9117L87.1907 10.3291H79.8148V10.3335ZM90.4295 10.3335V13.2445H93.4471V29.6276H96.3851V13.2445H99.4027V10.3335H90.4295ZM15.5112 10.3335V29.632H18.4492V20.3115H19.2412L21.3385 29.632H24.3517L22.1792 20.3115H22.8871L24.4844 18.7289V11.9161L22.8871 10.3335H15.5112ZM21.5421 17.3962H18.4492V13.2445H21.5421V17.3962Z" fill="var(--fill-0, #EED410)"/>
<path id="Vector_2" d="M61.0868 0V5.66857H0V34.3314V34.6427L43.1891 40V34.3314H104.276V5.3573L61.0868 0ZM42.0918 38.7637L6.34496 34.3314H42.0918V38.7637ZM103.174 33.2398H1.10174V6.76019H103.174V33.2442V33.2398ZM62.1885 5.66857V1.2363L97.9353 5.66857H62.1885Z" fill="var(--fill-0, #EED410)"/>
</g>
</svg>
