<svg preserveAspectRatio="none" width="100%" height="100%" overflow="visible" style="display: block;" viewBox="0 0 66 80" fill="none" xmlns="http://www.w3.org/2000/svg">
<g id="Vector">
<path d="M0.00745259 79.4809C4.71848 65.6994 15.0545 50.3524 28.4625 42.2822C29.0647 42.0754 35.9749 49.9258 36.483 50.186C36.0568 45.8783 35.5142 42.0358 35.3439 37.0516C35.3336 36.7749 35.4546 36.5065 35.6287 36.2895C37.1512 34.3959 43.0731 30.0515 43.0731 30.0515C40.4951 30.2601 38.362 30.7336 34.9558 30.3631C33.5356 28.0659 33.8343 23.7647 33.8697 20.9646C31.9963 24.0754 29.7766 28.2598 27.6398 31.0967C26.9335 32.0334 25.9442 32.7256 24.8125 33.0721C23.543 33.4619 22.0344 33.6825 20.7799 33.7974C23.1373 35.2425 23.9944 37.0617 22.6161 39.3875C20.712 42.603 18.7092 45.4454 16.1266 48.7676L14.9912 48.2473L16.5947 40.9539C17.759 34.8288 6.50256 33.4086 2.45696 31.4395L2.59749 30.2142C8.99861 29.3344 16.8302 29.226 22.8432 27.2468C29.7059 18.6646 35.0535 8.4774 42.3062 0L43.4276 0.538687C42.1247 5.66539 39.1745 20.6134 40.6738 22.7103C40.8013 23.0155 41.195 23.9393 43.4872 23.9393C51.3802 23.3492 57.9898 19.3651 65.3988 17.1341L66 18.2261C57.9032 25.0057 48.6598 31.8826 41.7348 39.7947C41.4342 47.5449 43.3541 57.8011 45.57 67.411L44.4821 67.9442C41.7143 64.4685 32.7268 54.5911 28.1657 52.224C13.6287 60.0772 0.294089 80.4627 1.1624 79.992L0 79.4735L0.00465787 79.4781V79.48L0.00745259 79.4809Z" fill="var(--fill-0, #EED410)" style="mix-blend-mode:difference"/>
</g>
</svg>
