<svg preserveAspectRatio="none" width="100%" height="100%" overflow="visible" style="display: block;" viewBox="0 0 202 864" fill="none" xmlns="http://www.w3.org/2000/svg">
<g id="Vector">
<path d="M128.435 751.421C121.784 743.774 115.799 735.313 110.152 726.753C86.8988 691.158 69.5005 651.306 56.0456 610.275C53.0661 600.896 49.7539 590.055 47.1998 580.506C46.2414 576.804 44.8284 571.661 43.8964 567.983C42.7911 563.257 40.708 555.029 39.708 550.324C38.7113 545.581 37.3625 539.834 36.4431 535.106C35.7811 531.7 34.1151 523.101 33.4746 519.815C32.6904 515.17 31.2061 506.561 30.419 501.886C29.7372 497.193 28.4581 488.642 27.7528 483.883C27.0476 478.014 25.8368 469.049 25.1912 463.228C16.519 387.484 18.5248 310.269 33.2589 236.056C41.4377 195.326 52.6678 155.052 69.3945 117.658C46.6425 151.786 31.4827 191.571 20.1256 232.036C-1.00045 308.815 -4.8186 391.178 5.51234 471.039C5.96241 474.317 7.20446 483.581 7.6785 487.005C8.25758 490.594 9.71384 499.457 10.2765 502.907C11.2595 508.909 13.1426 518.025 14.2624 524.014C16.0523 532.056 18.2093 542.225 20.313 550.158C20.7388 551.768 21.8571 556.374 22.277 557.959C22.7708 559.856 25.3538 568.826 25.902 570.864C27.4956 576.576 29.6691 583.111 31.4 588.78C32.5785 592.256 35.3936 600.5 36.6148 603.953C37.9557 607.581 39.95 612.822 41.2981 616.453C52.9289 646.152 67.2849 674.878 84.7771 700.939C93.5519 713.853 103.094 726.309 113.642 737.501C118.299 742.397 123.215 747.291 128.442 751.424L128.435 751.421Z" fill="url(#paint0_linear_0_99)"/>
<path d="M85.1321 738.794C94.9264 760.905 114.119 784.75 137.187 796.072C138.2 796.322 148.236 782.263 149.021 781.755C148.993 788.956 148.702 795.404 149.195 803.687C149.221 804.147 149.459 804.573 149.777 804.906C152.546 807.81 162.857 814.103 162.857 814.103C158.629 814.151 155.084 813.693 149.597 814.826C147.64 818.848 148.79 825.927 149.28 830.561C145.751 825.694 141.492 819.101 137.577 814.727C136.283 813.283 134.566 812.288 132.67 811.887C130.544 811.434 128.054 811.3 125.996 811.301C129.609 808.547 130.723 805.403 128.122 801.761C124.526 796.725 120.828 792.322 116.112 787.212L114.344 788.247L118.08 800.084C120.92 810.053 102.818 814.124 96.5368 818.003L96.9552 820.012C107.51 820.492 120.273 819.476 130.365 821.836C142.859 835.005 153.135 851.065 166.248 864L167.991 862.937C165.078 854.644 157.971 830.331 160.086 826.628C160.246 826.103 160.745 824.513 164.476 824.163C177.414 823.936 188.787 829.527 201.191 832.091L202 830.19C187.776 820.195 171.669 810.215 159.176 798.165C157.492 785.373 159.033 768.09 161.157 751.831L159.304 751.114C155.336 757.294 142.232 775.029 135.173 779.647C110.3 768.856 85.4502 737.124 86.9369 737.77L85.1249 738.806L85.1324 738.797L85.1321 738.794Z" fill="url(#paint1_linear_0_99)"/>
<path d="M29.1809 138.123C34.7218 114.574 49.1775 87.5723 69.7555 72.1562C70.7042 71.7218 83.1628 83.6711 84.0288 84.0244C82.6708 76.9535 81.194 70.671 80.1486 62.4397C80.0893 61.9829 80.244 61.5198 80.495 61.1342C82.6804 57.7646 91.6498 49.6636 91.6498 49.6636C87.4863 50.4024 84.0874 51.5124 78.4867 51.4193C75.8204 47.8307 75.6428 40.6602 75.2686 36.0153C72.6993 41.4544 69.7321 48.7249 66.6925 53.7514C65.688 55.4112 64.1845 56.7083 62.3957 57.4555C60.3898 58.2955 57.9683 58.8904 55.9448 59.2724C60.0044 61.3068 61.68 64.1889 59.796 68.2517C57.1931 73.8695 54.3725 78.8838 50.6813 84.782L48.7532 84.0937L50.2379 71.7669C51.1875 61.4431 32.6473 60.8088 25.7587 58.1651L25.7988 56.1138C36.0817 53.6783 48.812 52.3031 58.2928 48.1071C68.1384 32.8426 75.2698 15.1501 85.7669 0L87.6757 0.720729C86.3454 9.41161 83.8517 34.6251 86.6142 37.8704C86.8685 38.3564 87.6518 39.8262 91.3834 39.4761C104.139 37.2934 114.282 29.684 125.998 24.8578L127.144 26.5749C115.012 39.0425 101.028 51.8454 90.9769 66.0093C91.6839 78.8938 96.3905 95.59 101.481 111.172L99.7926 112.222C94.7513 106.887 78.599 91.8965 70.8092 88.6715C48.3609 103.901 29.802 139.706 31.1436 138.794L29.1716 138.113L29.1806 138.12L29.1809 138.123Z" fill="url(#paint2_linear_0_99)"/>
</g>
<defs>
<linearGradient id="paint0_linear_0_99" x1="101" y1="0" x2="101" y2="864" gradientUnits="userSpaceOnUse">
<stop stop-color="#76735C"/>
<stop offset="1" stop-color="#141414" stop-opacity="0.8"/>
</linearGradient>
<linearGradient id="paint1_linear_0_99" x1="101" y1="0" x2="101" y2="864" gradientUnits="userSpaceOnUse">
<stop stop-color="#76735C"/>
<stop offset="1" stop-color="#141414" stop-opacity="0.8"/>
</linearGradient>
<linearGradient id="paint2_linear_0_99" x1="101" y1="0" x2="101" y2="864" gradientUnits="userSpaceOnUse">
<stop stop-color="#76735C"/>
<stop offset="1" stop-color="#141414" stop-opacity="0.8"/>
</linearGradient>
</defs>
</svg>
